<svg width="162" height="55" viewBox="0 0 162 55" fill="none" xmlns="http://www.w3.org/2000/svg">
<g clip-path="url(#clip0_26_6)">
<mask id="mask0_26_6" style="mask-type:luminance" maskUnits="userSpaceOnUse" x="71" y="26" width="14" height="17">
<path d="M74.5751 29.2569H76.1952C76.8709 29.2569 77.5043 29.3836 78.0956 29.6447C78.6906 29.902 79.2089 30.2476 79.6504 30.693C80.0996 31.1346 80.4451 31.6529 80.6985 32.2442C80.9519 32.8317 81.0786 33.4653 81.0786 34.1372C81.0786 34.813 80.9519 35.4466 80.6985 36.0417C80.4413 36.6331 80.0958 37.1553 79.6504 37.5968C79.2089 38.0384 78.6945 38.3878 78.0956 38.6412C77.5043 38.8947 76.8747 39.0214 76.1952 39.0214H74.5751V29.2569ZM71.2926 26.0008V42.2813H76.199C76.9477 42.2813 77.6694 42.1815 78.3605 41.9933C79.0554 41.8013 79.7042 41.5287 80.3146 41.1678C80.9174 40.8145 81.4664 40.3845 81.9578 39.893C82.4492 39.3977 82.8753 38.8486 83.2285 38.2457C83.5856 37.6429 83.862 36.9978 84.0501 36.3067C84.2459 35.6117 84.3457 34.8898 84.3457 34.1411C84.3457 33.3923 84.2459 32.6705 84.0501 31.9793C83.8582 31.2882 83.5817 30.6392 83.2285 30.0364C82.8753 29.4374 82.4492 28.8883 81.9578 28.393C81.4625 27.8938 80.9174 27.4676 80.3146 27.1144C79.708 26.7573 79.0592 26.4846 78.3605 26.2888C77.6694 26.0968 76.9477 26.0008 76.199 26.0008H71.2926Z" fill="white"/>
</mask>
<g mask="url(#mask0_26_6)">
<path d="M75.6462 19.8496L92.0164 31.4302L79.9844 48.4326L63.6181 36.8481L75.6462 19.8496Z" fill="url(#paint0_linear_26_6)"/>
</g>
<mask id="mask1_26_6" style="mask-type:luminance" maskUnits="userSpaceOnUse" x="85" y="24" width="5" height="19">
<path d="M85.7048 42.2813H88.826V30.1209H85.7048V42.2813ZM86.4611 24.9142C86.2039 25.0255 85.9851 25.1715 85.8008 25.3558C85.6165 25.5439 85.4668 25.7628 85.3593 26.0162C85.2479 26.2696 85.1942 26.5384 85.1942 26.8149C85.1942 27.1067 85.2479 27.3716 85.3593 27.625C85.4668 27.8746 85.6165 28.0935 85.8008 28.2778C85.9812 28.4621 86.2039 28.608 86.4611 28.7194C86.7145 28.8269 86.9794 28.8845 87.2712 28.8845C87.5591 28.8845 87.8279 28.8307 88.0812 28.7194C88.3308 28.608 88.5534 28.4621 88.7454 28.2778C88.9335 28.0935 89.0833 27.8746 89.1908 27.625C89.3021 27.3755 89.3558 27.1067 89.3558 26.8149C89.3558 26.5384 89.3021 26.2696 89.1908 26.0162C89.0833 25.7628 88.9297 25.5439 88.7454 25.3558C88.5534 25.1715 88.3308 25.0255 88.0812 24.9142C87.824 24.8028 87.5553 24.7491 87.2712 24.7491C86.9794 24.7491 86.7145 24.8067 86.4611 24.9142Z" fill="white"/>
</mask>
<g mask="url(#mask1_26_6)">
<path d="M86.584 22.787L97.6254 30.597L87.9661 44.2473L76.9246 36.4296L86.584 22.787Z" fill="url(#paint1_linear_26_6)"/>
</g>
<mask id="mask2_26_6" style="mask-type:luminance" maskUnits="userSpaceOnUse" x="90" y="29" width="13" height="18">
<path d="M95.0839 39.1634C94.7076 39.0099 94.3851 38.791 94.1126 38.4992C93.8323 38.215 93.6135 37.8656 93.4561 37.4624C93.2987 37.0593 93.2219 36.6023 93.2219 36.0955C93.2219 35.5656 93.3025 35.0972 93.4561 34.6825C93.6135 34.2716 93.8323 33.9222 94.1126 33.6419C94.3851 33.3616 94.7115 33.1504 95.0839 33.0083C95.4639 32.8663 95.8594 32.7895 96.2817 32.7895C96.704 32.7895 97.1071 32.8855 97.4833 33.0698C97.8557 33.2503 98.1821 33.4998 98.4623 33.807C98.7426 34.1142 98.9614 34.4674 99.1265 34.8591C99.2877 35.2584 99.3684 35.6693 99.3684 36.0917C99.3684 36.5179 99.2877 36.9249 99.1265 37.3242C98.9614 37.7197 98.7426 38.073 98.4623 38.3801C98.1821 38.6873 97.8557 38.9331 97.4833 39.1174C97.1071 39.3017 96.704 39.3938 96.2817 39.3938C95.8594 39.3977 95.4601 39.3209 95.0839 39.1634ZM93.8707 30.1439C93.1182 30.4703 92.4579 30.9195 91.8935 31.4917C91.333 32.0715 90.8838 32.7511 90.5575 33.5382C90.2388 34.3254 90.0699 35.1778 90.0699 36.0917C90.0699 37.09 90.235 37.9846 90.5575 38.7833C90.8838 39.5781 91.333 40.2501 91.8935 40.7992C92.4579 41.3482 93.1144 41.7706 93.8707 42.0624C94.6232 42.3619 95.4294 42.504 96.2817 42.504C96.5389 42.504 96.8192 42.4925 97.1148 42.4579C97.4142 42.4349 97.7022 42.3735 97.9747 42.2928C98.2512 42.2122 98.5045 42.1124 98.7311 41.9895C98.9537 41.8666 99.1303 41.7015 99.2532 41.5057C99.1687 41.8167 99.0574 42.1124 98.9153 42.3927C98.7771 42.673 98.589 42.9187 98.351 43.1299C98.1206 43.3526 97.8365 43.5215 97.4948 43.6444C97.1532 43.7711 96.7385 43.8326 96.251 43.8326L94.7191 43.8095V46.912L96.274 46.9312C97.1301 46.9312 97.9287 46.7699 98.685 46.4397C99.4413 46.1134 100.102 45.6718 100.662 45.115C101.227 44.5544 101.668 43.894 101.994 43.1452C102.321 42.4003 102.482 41.5978 102.482 40.7416V30.1439H101.737L100.532 31.5838C100.244 31.3112 99.9366 31.0578 99.6064 30.8235C99.2801 30.5893 98.9345 30.3858 98.5698 30.2092C98.2089 30.0364 97.8365 29.8982 97.4449 29.7983C97.0572 29.7023 96.6694 29.6524 96.2778 29.6524C95.4294 29.6524 94.6193 29.8175 93.8707 30.1439Z" fill="white"/>
</mask>
<g mask="url(#mask2_26_6)">
<path d="M94.2162 23.8007L110.64 35.4197L98.351 52.7945L81.9271 41.1678L94.2162 23.8007Z" fill="url(#paint2_linear_26_6)"/>
</g>
<mask id="mask3_26_6" style="mask-type:luminance" maskUnits="userSpaceOnUse" x="103" y="24" width="6" height="19">
<path d="M104.386 42.2813H107.511V30.1209H104.386V42.2813ZM105.142 24.9142C104.889 25.0255 104.67 25.1715 104.482 25.3558C104.294 25.5439 104.148 25.7628 104.041 26.0162C103.929 26.2696 103.879 26.5384 103.879 26.8149C103.879 27.1067 103.929 27.3716 104.041 27.625C104.148 27.8746 104.298 28.0935 104.482 28.2778C104.666 28.4621 104.889 28.608 105.142 28.7194C105.392 28.8269 105.665 28.8845 105.956 28.8845C106.244 28.8845 106.509 28.8307 106.766 28.7194C107.016 28.608 107.239 28.4621 107.431 28.2778C107.619 28.0935 107.768 27.8746 107.876 27.625C107.983 27.3755 108.041 27.1067 108.041 26.8149C108.041 26.5384 107.987 26.2696 107.876 26.0162C107.765 25.7628 107.615 25.5439 107.431 25.3558C107.239 25.1715 107.016 25.0255 106.766 24.9142C106.509 24.8028 106.24 24.7491 105.956 24.7491C105.668 24.7491 105.396 24.8067 105.142 24.9142Z" fill="white"/>
</mask>
<g mask="url(#mask3_26_6)">
<path d="M105.265 22.787L116.307 30.597L106.655 44.2473L95.6137 36.4296L105.265 22.787Z" fill="url(#paint3_linear_26_6)"/>
</g>
<mask id="mask4_26_6" style="mask-type:luminance" maskUnits="userSpaceOnUse" x="109" y="26" width="14" height="17">
<path d="M112.997 35.773H117.877C118.103 35.773 118.318 35.8152 118.514 35.8997C118.71 35.9841 118.879 36.0955 119.029 36.2491C119.182 36.395 119.294 36.5678 119.374 36.7636C119.459 36.9594 119.501 37.1745 119.501 37.401C119.501 37.6314 119.459 37.8426 119.374 38.0384C119.294 38.2342 119.178 38.4032 119.029 38.5529C118.883 38.6988 118.714 38.814 118.514 38.8947C118.318 38.9791 118.103 39.0214 117.877 39.0214H112.997V35.773ZM112.997 29.2569H117.877C118.103 29.2569 118.318 29.2992 118.514 29.3798C118.71 29.4643 118.879 29.5795 119.029 29.7254C119.182 29.8713 119.294 30.0479 119.374 30.2399C119.459 30.4396 119.501 30.6469 119.501 30.8773C119.501 31.1038 119.459 31.3189 119.374 31.5185C119.294 31.7182 119.178 31.8948 119.029 32.0407C118.883 32.1866 118.714 32.3057 118.514 32.3902C118.318 32.4708 118.103 32.5169 117.877 32.5169H112.997V29.2569ZM109.738 26.0008V42.2813H117.877C118.549 42.2813 119.182 42.1546 119.773 41.8935C120.361 41.6362 120.879 41.2868 121.321 40.8452C121.766 40.3998 122.115 39.8853 122.373 39.2978C122.63 38.7065 122.757 38.0768 122.757 37.401C122.757 37.1015 122.714 36.7866 122.638 36.4641C122.557 36.1416 122.442 35.8344 122.292 35.5387C122.142 35.2431 121.962 34.9743 121.747 34.7285C121.532 34.4828 121.294 34.287 121.029 34.1449C121.286 33.9875 121.52 33.784 121.728 33.5421C121.943 33.3002 122.123 33.0275 122.277 32.7357C122.426 32.4401 122.545 32.1329 122.63 31.818C122.71 31.4993 122.753 31.1883 122.753 30.8888C122.753 30.2169 122.626 29.5871 122.369 28.992C122.112 28.4007 121.762 27.8861 121.317 27.4446C120.875 26.9992 120.357 26.6498 119.77 26.3925C119.178 26.1391 118.545 26.0085 117.873 26.0085H109.738V26.0008Z" fill="white"/>
</mask>
<g mask="url(#mask4_26_6)">
<path d="M114.084 19.8573L130.435 31.4302L118.411 48.421L102.063 36.8481L114.084 19.8573Z" fill="url(#paint4_linear_26_6)"/>
</g>
<mask id="mask5_26_6" style="mask-type:luminance" maskUnits="userSpaceOnUse" x="123" y="29" width="14" height="14">
<path d="M128.769 39.1442C128.396 38.9715 128.07 38.7372 127.79 38.4416C127.517 38.1498 127.298 37.8003 127.141 37.3972C126.98 36.994 126.903 36.5601 126.903 36.0917C126.903 35.5925 126.98 35.1356 127.141 34.7324C127.298 34.3292 127.517 33.9798 127.79 33.688C128.07 33.4 128.396 33.1735 128.769 33.0199C129.145 32.8624 129.544 32.7857 129.966 32.7857C130.389 32.7857 130.788 32.8624 131.168 33.0199C131.541 33.1735 131.867 33.4 132.147 33.688C132.427 33.9798 132.646 34.3292 132.807 34.7324C132.973 35.1394 133.053 35.5925 133.053 36.0917C133.053 36.5831 132.973 37.0324 132.807 37.4432C132.646 37.8503 132.424 38.1958 132.147 38.4877C131.867 38.7795 131.541 38.9983 131.168 39.1596C130.788 39.317 130.389 39.3977 129.966 39.3977C129.544 39.3977 129.145 39.3132 128.769 39.1442ZM127.555 30.1439C126.799 30.4703 126.147 30.9195 125.578 31.4878C125.014 32.0561 124.569 32.7396 124.25 33.5267C123.92 34.3139 123.755 35.1701 123.755 36.0917C123.755 37.0017 123.92 37.8464 124.25 38.6297C124.569 39.413 125.014 40.0888 125.578 40.6609C126.143 41.2331 126.799 41.6823 127.555 42.0125C128.308 42.3389 129.114 42.504 129.966 42.504C130.83 42.504 131.64 42.3389 132.389 42.0125C133.145 41.6785 133.798 41.2331 134.358 40.6609C134.915 40.0927 135.364 39.4169 135.687 38.6297C136.013 37.8464 136.174 37.0017 136.174 36.0917C136.174 35.124 136.009 34.2409 135.687 33.4499C135.364 32.6589 134.919 31.9793 134.358 31.4149C133.798 30.8543 133.141 30.4204 132.389 30.1094C131.637 29.806 130.83 29.6486 129.966 29.6486C129.114 29.6524 128.304 29.8175 127.555 30.1439Z" fill="white"/>
</mask>
<g mask="url(#mask5_26_6)">
<path d="M127.905 23.8007L142.236 33.9452L132.032 48.3673L117.7 38.2189L127.905 23.8007Z" fill="url(#paint5_linear_26_6)"/>
</g>
<mask id="mask6_26_6" style="mask-type:luminance" maskUnits="userSpaceOnUse" x="136" y="29" width="14" height="14">
<path d="M141.768 39.1442C141.392 38.9715 141.069 38.7372 140.793 38.4416C140.516 38.1498 140.298 37.8003 140.136 37.3972C139.979 36.994 139.898 36.5601 139.898 36.0917C139.898 35.5925 139.979 35.1356 140.136 34.7324C140.294 34.3292 140.516 33.9798 140.793 33.688C141.069 33.4 141.392 33.1735 141.768 33.0199C142.144 32.8624 142.547 32.7857 142.966 32.7857C143.388 32.7857 143.787 32.8624 144.164 33.0199C144.536 33.1735 144.866 33.4 145.143 33.688C145.423 33.9798 145.646 34.3292 145.811 34.7324C145.972 35.1394 146.053 35.5925 146.053 36.0917C146.053 36.5831 145.972 37.0324 145.811 37.4432C145.646 37.8503 145.423 38.1958 145.143 38.4877C144.862 38.7795 144.536 38.9983 144.164 39.1596C143.787 39.317 143.384 39.3977 142.966 39.3977C142.544 39.3977 142.144 39.3132 141.768 39.1442ZM140.555 30.1439C139.799 30.4703 139.142 30.9195 138.578 31.4878C138.013 32.0561 137.572 32.7396 137.246 33.5267C136.919 34.3139 136.758 35.1701 136.758 36.0917C136.758 37.0017 136.923 37.8464 137.246 38.6297C137.572 39.413 138.013 40.0888 138.578 40.6609C139.142 41.2331 139.799 41.6823 140.555 42.0125C141.307 42.3389 142.11 42.504 142.966 42.504C143.83 42.504 144.636 42.3389 145.388 42.0125C146.141 41.6785 146.794 41.2331 147.358 40.6609C147.922 40.0927 148.364 39.4169 148.686 38.6297C149.016 37.8464 149.178 37.0017 149.178 36.0917C149.178 35.124 149.013 34.2409 148.686 33.4499C148.368 32.6589 147.922 31.9793 147.358 31.4149C146.794 30.8543 146.141 30.4204 145.388 30.1094C144.632 29.806 143.83 29.6486 142.966 29.6486C142.11 29.6524 141.304 29.8175 140.555 30.1439Z" fill="white"/>
</mask>
<g mask="url(#mask6_26_6)">
<path d="M140.9 23.8007L155.236 33.9452L145.027 48.3673L130.696 38.2189L140.9 23.8007Z" fill="url(#paint6_linear_26_6)"/>
</g>
<mask id="mask7_26_6" style="mask-type:luminance" maskUnits="userSpaceOnUse" x="150" y="25" width="12" height="18">
<path d="M150.425 25.2828V42.2813H153.543V40.7262L155.704 37.8618L158.169 42.2813H161.732L157.697 35.2085L161.732 30.1439H158.169L153.543 36.0033V25.2828H150.425Z" fill="white"/>
</mask>
<g mask="url(#mask7_26_6)">
<path d="M154.199 19.9533L169.744 30.9541L157.954 47.6109L142.413 36.61L154.199 19.9533Z" fill="url(#paint7_linear_26_6)"/>
</g>
<path d="M58.5773 3.98766H37.2892V50.3217H58.5773V3.98766Z" fill="#F3F2F1"/>
<path d="M38.4255 29.4643L37.2892 28.0935V7.40885C37.2892 7.40885 37.2853 6.71002 37.2853 5.84224C37.2853 5.4429 37.3621 5.11653 37.5464 4.83623C37.9572 4.21035 38.4716 4.08748 38.4716 4.08748C38.4716 4.08748 38.4255 29.4412 38.4255 29.4643Z" fill="#14A1B5"/>
<mask id="mask8_26_6" style="mask-type:luminance" maskUnits="userSpaceOnUse" x="34" y="1" width="28" height="52">
<path d="M39.4468 1.47263C36.8515 1.47263 34.7361 3.58832 34.7361 6.18398V14.1361H37.3007V6.18398C37.3007 5.00134 38.2643 4.03757 39.4468 4.03757H56.389C57.5676 4.03757 58.5312 5.00134 58.5312 6.18398V48.014C58.5312 49.1967 57.5676 50.1604 56.389 50.1604H39.4468C38.2643 50.1604 37.3007 49.2005 37.3007 48.014V36.514H34.7361V48.014C34.7361 50.6135 36.8515 52.7292 39.4468 52.7292H56.389C58.9843 52.7292 61.0996 50.6135 61.0996 48.014V6.18398C61.0996 3.58832 58.9843 1.47263 56.389 1.47263H39.4468Z" fill="white"/>
</mask>
<g mask="url(#mask8_26_6)">
<path d="M53.9857 -10.2309L83.8466 38.8947L41.8501 64.425L11.9929 15.2995L53.9857 -10.2309Z" fill="url(#paint8_linear_26_6)"/>
</g>
<mask id="mask9_26_6" style="mask-type:luminance" maskUnits="userSpaceOnUse" x="0" y="0" width="38" height="55">
<path d="M0.847855 0.424377V54.3266H37.2892L37.3007 48.2521L37.2892 0.424377H0.847855Z" fill="white"/>
</mask>
<g mask="url(#mask9_26_6)">
<path d="M45.4819 4.17195C40.2645 6.11486 37.5233 9.13289 37.5233 9.13289C37.5233 9.13289 27.3956 -1.9793 9.09053 4.7172V44.612C9.09053 44.612 21.3183 38.599 37.5041 46.9351C40.2875 45.5259 42.9634 44.5352 45.4781 43.8594L45.4819 4.17195Z" fill="white"/>
</g>
<mask id="mask10_26_6" style="mask-type:luminance" maskUnits="userSpaceOnUse" x="7" y="1" width="31" height="48">
<path d="M8.65287 3.51152L7.81209 3.8187V44.612V46.6586L9.65489 45.7639C9.68944 45.7486 12.6494 44.3317 17.4714 43.9132C21.9133 43.5292 28.8891 43.9401 36.9206 48.0755L37.3007 48.2713V48.2483V45.3915C30.7587 42.1776 24.881 41.2062 20.1703 41.2062C15.7323 41.2062 12.3308 42.0663 10.3766 42.7267V5.62722C17.2948 3.27346 23.7446 3.25042 29.5724 5.56194C33.0047 6.91736 35.2429 8.74892 36.1336 9.57062L36.1489 29.4681L37.2968 28.0858L37.293 7.16695C36.0453 6.11102 33.8109 4.49449 30.6512 3.22354C28.1097 2.20217 24.6737 1.29984 20.4544 1.29984C17.0222 1.29984 13.0679 1.89883 8.65287 3.51152Z" fill="white"/>
</mask>
<g mask="url(#mask10_26_6)">
<path d="M29.3459 -11.7898L58.1512 35.6002L15.7668 61.3686L-13.0384 13.9786L29.3459 -11.7898Z" fill="url(#paint9_linear_26_6)"/>
</g>
<mask id="mask11_26_6" style="mask-type:luminance" maskUnits="userSpaceOnUse" x="0" y="0" width="38" height="55">
<path d="M0.847855 0.424377V54.3266H37.2892L37.3007 48.2521L37.2892 0.424377H0.847855Z" fill="white"/>
</mask>
<g mask="url(#mask11_26_6)">
<path d="M32.4557 38.7488C32.3674 38.7488 32.2829 38.718 32.2099 38.6681C25.8715 34.0451 13.9432 36.3912 13.8242 36.4142C13.5939 36.4603 13.3712 36.3182 13.329 36.0878C13.2867 35.8613 13.4288 35.6424 13.6553 35.5963C13.782 35.5695 16.7765 34.9705 20.6349 34.9551C25.8523 34.9397 29.9065 35.9534 32.6975 37.9885C32.8856 38.1267 32.9279 38.3878 32.7897 38.576C32.709 38.6873 32.5823 38.7488 32.4557 38.7488Z" fill="#92BBC0"/>
</g>
<mask id="mask12_26_6" style="mask-type:luminance" maskUnits="userSpaceOnUse" x="0" y="0" width="38" height="55">
<path d="M0.847855 0.424377V54.3266H37.2892L37.3007 48.2521L37.2892 0.424377H0.847855Z" fill="white"/>
</mask>
<g mask="url(#mask12_26_6)">
<path d="M32.7282 34.5135C32.6591 34.5135 32.5939 34.4943 32.5248 34.4598C23.376 29.4182 13.9586 32.2788 13.8664 32.3018C13.6476 32.3748 13.4134 32.2519 13.3405 32.0292C13.2714 31.8104 13.3942 31.5761 13.6131 31.5032C13.709 31.4763 23.4567 28.5043 32.9279 33.7225C33.1313 33.8339 33.2043 34.0873 33.093 34.2908C33.02 34.4329 32.8741 34.5135 32.7282 34.5135Z" fill="#92BBC0"/>
</g>
<mask id="mask13_26_6" style="mask-type:luminance" maskUnits="userSpaceOnUse" x="0" y="0" width="38" height="55">
<path d="M0.847855 0.424377V54.3266H37.2892L37.3007 48.2521L37.2892 0.424377H0.847855Z" fill="white"/>
</mask>
<g mask="url(#mask13_26_6)">
<path d="M32.7282 30.4165C32.6553 30.4165 32.5823 30.3935 32.5132 30.3551C24.4241 25.4479 14.093 28.1856 13.9855 28.2125C13.7666 28.274 13.5324 28.1434 13.471 27.9207C13.4134 27.698 13.544 27.4715 13.7666 27.4062C14.2005 27.2872 24.5508 24.5494 32.9432 29.6371C33.1429 29.7561 33.2043 30.0134 33.0853 30.213C33.0085 30.3397 32.8664 30.4165 32.7282 30.4165Z" fill="#92BBC0"/>
</g>
<mask id="mask14_26_6" style="mask-type:luminance" maskUnits="userSpaceOnUse" x="0" y="0" width="38" height="55">
<path d="M0.847855 0.424377V54.3266H37.2892L37.3007 48.2521L37.2892 0.424377H0.847855Z" fill="white"/>
</mask>
<g mask="url(#mask14_26_6)">
<path d="M32.3174 26.1775C32.2407 26.1775 32.16 26.1544 32.0948 26.1122C25.0845 21.7464 13.7973 23.9619 13.686 23.9811C13.4633 24.0272 13.2407 23.8813 13.1908 23.6548C13.1485 23.4282 13.2906 23.2094 13.5209 23.1633C13.6361 23.1402 16.4732 22.5758 20.2471 22.5566C23.7369 22.5489 28.7086 23.0212 32.5401 25.4018C32.7359 25.5247 32.7973 25.782 32.6745 25.9778C32.5939 26.1083 32.4595 26.1775 32.3174 26.1775Z" fill="#92BBC0"/>
</g>
<mask id="mask15_26_6" style="mask-type:luminance" maskUnits="userSpaceOnUse" x="0" y="0" width="38" height="55">
<path d="M0.847855 0.424377V54.3266H37.2892L37.3007 48.2521L37.2892 0.424377H0.847855Z" fill="white"/>
</mask>
<g mask="url(#mask15_26_6)">
<path d="M32.5939 21.6696C32.5363 21.6696 32.4749 21.6581 32.4173 21.6274C22.8386 17.1042 14.093 19.8457 14.0085 19.8688C13.7897 19.9417 13.5516 19.8227 13.4864 19.6038C13.4134 19.385 13.5286 19.1469 13.7513 19.0778C13.8396 19.0509 22.9 16.2095 32.7705 20.8748C32.9816 20.9746 33.0738 21.2204 32.9739 21.4316C32.8972 21.5813 32.7474 21.6696 32.5939 21.6696Z" fill="#92BBC0"/>
</g>
<mask id="mask16_26_6" style="mask-type:luminance" maskUnits="userSpaceOnUse" x="0" y="0" width="38" height="55">
<path d="M0.847855 0.424377V54.3266H37.2892L37.3007 48.2521L37.2892 0.424377H0.847855Z" fill="white"/>
</mask>
<g mask="url(#mask16_26_6)">
<path d="M32.4557 17.8452C32.3827 17.8452 32.3098 17.8261 32.2445 17.7877C24.1477 13.1416 14.0699 15.4877 13.9701 15.5107C13.7474 15.5644 13.5209 15.4262 13.4672 15.2035C13.4134 14.9808 13.5516 14.7543 13.7743 14.7005C14.2043 14.5968 24.2782 12.2584 32.663 17.0696C32.8588 17.1848 32.9317 17.4344 32.8165 17.6379C32.7397 17.7685 32.5977 17.8452 32.4557 17.8452Z" fill="#92BBC0"/>
</g>
<mask id="mask17_26_6" style="mask-type:luminance" maskUnits="userSpaceOnUse" x="0" y="0" width="38" height="55">
<path d="M0.847855 0.424377V54.3266H37.2892L37.3007 48.2521L37.2892 0.424377H0.847855Z" fill="white"/>
</mask>
<g mask="url(#mask17_26_6)">
<path d="M32.5939 13.4718C32.5209 13.4718 32.4441 13.4526 32.3789 13.4142C24.5585 8.77196 14.0814 11.2486 13.9739 11.2755C13.7513 11.3292 13.5248 11.191 13.4672 10.9683C13.4173 10.7417 13.5555 10.5152 13.7781 10.4614C14.2196 10.3539 24.6929 7.88114 32.8089 12.6923C33.0047 12.8114 33.0738 13.0686 32.9509 13.2644C32.8741 13.3988 32.7359 13.4718 32.5939 13.4718Z" fill="#92BBC0"/>
</g>
<path d="M55.9513 14.2474H39.9842C39.7846 14.2474 39.6157 14.0823 39.6157 13.8788C39.6157 13.6715 39.7846 13.5063 39.9842 13.5063H55.9513C56.1548 13.5063 56.3199 13.6715 56.3199 13.8788C56.3199 14.0861 56.1548 14.2474 55.9513 14.2474Z" fill="#92BBC0"/>
<path d="M55.9513 17.7608H39.9842C39.7846 17.7608 39.6157 17.5918 39.6157 17.3883C39.6157 17.1848 39.7846 17.0159 39.9842 17.0159H55.9513C56.1548 17.0159 56.3199 17.1848 56.3199 17.3883C56.3199 17.5918 56.1548 17.7608 55.9513 17.7608Z" fill="#92BBC0"/>
<path d="M55.9513 21.2664H39.9842C39.7846 21.2664 39.6157 21.1013 39.6157 20.894C39.6157 20.6905 39.7846 20.5254 39.9842 20.5254H55.9513C56.1548 20.5254 56.3199 20.6905 56.3199 20.894C56.3199 21.1013 56.1548 21.2664 55.9513 21.2664Z" fill="#92BBC0"/>
<path d="M55.9513 24.776H39.9842C39.7846 24.776 39.6157 24.6109 39.6157 24.4074C39.6157 24.2038 39.7846 24.0349 39.9842 24.0349H55.9513C56.1548 24.0349 56.3199 24.2038 56.3199 24.4074C56.3199 24.607 56.1548 24.776 55.9513 24.776Z" fill="#92BBC0"/>
<path d="M55.9513 28.2816H39.9842C39.7846 28.2816 39.6157 28.1165 39.6157 27.9092C39.6157 27.7057 39.7846 27.5367 39.9842 27.5367H55.9513C56.1548 27.5367 56.3199 27.7057 56.3199 27.9092C56.3199 28.1165 56.1548 28.2816 55.9513 28.2816Z" fill="#92BBC0"/>
<path d="M55.9513 31.7873H39.9842C39.7846 31.7873 39.6157 31.6222 39.6157 31.4187C39.6157 31.2114 39.7846 31.0462 39.9842 31.0462H55.9513C56.1548 31.0462 56.3199 31.2114 56.3199 31.4187C56.3199 31.6222 56.1548 31.7873 55.9513 31.7873Z" fill="#92BBC0"/>
<path d="M55.9513 35.2968H39.9842C39.7846 35.2968 39.6157 35.1317 39.6157 34.9244C39.6157 34.7209 39.7846 34.5558 39.9842 34.5558H55.9513C56.1548 34.5558 56.3199 34.7209 56.3199 34.9244C56.3199 35.1356 56.1548 35.2968 55.9513 35.2968Z" fill="#92BBC0"/>
<path d="M55.9513 38.8063H39.9842C39.7846 38.8063 39.6157 38.6412 39.6157 38.4339C39.6157 38.2265 39.7846 38.0653 39.9842 38.0653H55.9513C56.1548 38.0653 56.3199 38.2304 56.3199 38.4339C56.3199 38.6412 56.1548 38.8063 55.9513 38.8063Z" fill="#92BBC0"/>
<path d="M82.1613 17.0197C82.1613 18.5172 81.5163 19.7037 80.2225 20.5868C79.0784 21.3701 77.7232 21.7618 76.1606 21.7618C75.0626 21.7618 73.9224 21.5237 72.7438 21.0476C71.2811 20.4601 70.5516 19.6883 70.5516 18.7361C70.5516 18.4174 70.6514 18.1486 70.8588 17.922C71.0622 17.6955 71.3233 17.5803 71.6381 17.5803C72.0451 17.5803 72.4175 17.7953 72.7592 18.2254C73.3273 18.9396 73.6729 19.3466 73.7957 19.4503C74.3294 19.8803 75.0281 20.0953 75.9034 20.0953C76.4371 20.0953 76.9093 19.9725 77.3316 19.7229C77.8307 19.4272 78.0802 19.0317 78.0802 18.5326C78.0802 17.9336 77.4698 17.4728 76.2451 17.1541C74.3639 16.6549 73.2314 16.3094 72.8475 16.1174C71.6228 15.4838 71.0123 14.4855 71.0123 13.1262C71.0123 11.7209 71.5997 10.6227 72.7783 9.82789C73.8111 9.12522 75.055 8.7758 76.5177 8.7758C77.3431 8.7758 78.0649 8.84876 78.6753 8.99851C79.1283 9.1137 79.7234 9.32105 80.4605 9.62822C80.8905 9.80869 81.1554 10.0429 81.2591 10.3232C81.3358 10.5498 81.3781 11.0643 81.3781 11.8706C81.3781 12.5503 81.094 12.892 80.5296 12.892C80.1879 12.892 79.9077 12.6578 79.6812 12.1932C79.3318 11.479 79.0746 11.0374 78.9172 10.8685C78.4872 10.4038 77.8767 10.1735 77.082 10.1735C76.5599 10.1735 76.1261 10.2656 75.7729 10.4461C75.3199 10.6842 75.0934 11.0412 75.0934 11.5174C75.0934 12.1855 75.7038 12.7077 76.9285 13.0801C77.9228 13.3873 79.0592 13.7483 80.3261 14.1668C81.5508 14.7888 82.1613 15.7372 82.1613 17.0197Z" fill="#2E3192"/>
<path d="M98.4431 10.9875V19.4157C98.4431 19.6538 98.5929 19.888 98.8923 20.1222C99.1918 20.3564 99.3415 20.583 99.3415 20.8095C99.3415 21.2626 98.9768 21.4892 98.255 21.4892H94.5502C93.8246 21.4892 93.4637 21.2626 93.4637 20.8095C93.4637 20.583 93.6135 20.3526 93.9129 20.1222C94.2124 19.8918 94.3621 19.6538 94.3621 19.4157V12.9573H94.3275L92.12 19.193C92.0049 19.5117 91.7822 19.7152 91.452 19.8035C91.2908 19.8496 90.9683 19.8726 90.4769 19.8726C90.0315 19.8726 89.7206 19.8342 89.5363 19.7536C89.2867 19.6423 89.0871 19.3965 88.9374 19.0241L86.6454 13.1953V19.1776C86.6454 19.4733 86.8642 19.7651 87.3096 20.0531C87.7511 20.3411 87.9699 20.5945 87.9699 20.8095C87.9699 21.2626 87.6244 21.4892 86.9333 21.4892H84.9254C84.1883 21.4892 83.8198 21.2511 83.8198 20.775C83.8198 20.56 84.0079 20.3257 84.3803 20.0685C84.7527 19.815 84.9408 19.5155 84.9408 19.1776V11.0873C84.9408 10.8608 84.745 10.6458 84.3534 10.4423C83.9618 10.2387 83.766 9.95461 83.766 9.59367C83.766 9.23274 84.0501 9.04843 84.6145 9.04843H88.3538C88.8759 9.04843 89.2368 9.1521 89.4403 9.35561C89.5977 9.51304 89.782 9.88165 89.9855 10.4615L91.8206 15.5913L94.0127 9.76646C94.1932 9.29033 94.5809 9.05227 95.1683 9.05227H98.3471C98.7426 9.05227 99.0228 9.08683 99.1803 9.15594C99.4528 9.27114 99.5872 9.49 99.5872 9.82022C99.5872 10.0813 99.3952 10.3002 99.0075 10.4845C98.6351 10.6573 98.4431 10.8262 98.4431 10.9875Z" fill="#2E3192"/>
<path d="M108.175 17.6494H103.929C103.545 18.7822 103.35 19.4503 103.35 19.6538C103.35 19.8342 103.495 20.0224 103.783 20.2144C104.071 20.4064 104.217 20.5983 104.217 20.7942C104.217 21.2588 103.883 21.4892 103.215 21.4892H101.311C100.766 21.4892 100.497 21.2626 100.497 20.8095C100.497 20.606 100.647 20.3833 100.946 20.1453C101.246 19.9072 101.403 19.7651 101.415 19.719C101.584 19.1316 102.102 17.6801 102.962 15.3686C103.891 12.8536 104.521 11.2563 104.847 10.5766C105.131 9.97764 105.4 9.57831 105.665 9.38632C105.972 9.15978 106.432 9.04459 107.058 9.04459C107.761 9.04459 108.225 9.10602 108.452 9.23273C108.678 9.35944 108.943 9.7127 109.25 10.304C110.801 13.2952 112.061 16.4322 113.024 19.719C113.059 19.8458 113.201 20.0109 113.45 20.222C113.7 20.4332 113.823 20.6367 113.823 20.8402C113.823 21.2703 113.481 21.4853 112.802 21.4853H109.3C108.517 21.4853 108.129 21.2703 108.129 20.8402C108.129 20.6713 108.241 20.4908 108.459 20.3065C108.682 20.1184 108.79 20.0109 108.79 19.9763C108.732 19.7498 108.529 18.9741 108.175 17.6494ZM104.467 15.9484H107.55L106.068 12.0281L104.467 15.9484Z" fill="#2E3192"/>
<path d="M115.773 19.4157V11.1219C115.773 10.8838 115.623 10.6496 115.324 10.4154C115.024 10.185 114.875 9.95461 114.875 9.72806C114.875 9.27497 115.236 9.04843 115.961 9.04843H123.083C124.261 9.04843 125.202 9.25194 125.905 9.65895C126.788 10.1696 127.229 10.9683 127.229 12.0549C127.229 13.4603 126.419 14.5546 124.799 15.3341C125.659 16.2518 126.385 17.5611 126.976 19.2583C127.033 19.4157 127.241 19.7229 127.605 20.176C127.947 20.583 128.116 20.8287 128.116 20.9055C128.116 21.2895 127.724 21.4853 126.945 21.4853H123.106C122.334 21.4853 121.954 21.2741 121.966 20.8556C121.966 20.6751 122.073 20.487 122.288 20.295C122.503 20.103 122.611 19.9648 122.611 19.888C122.611 19.4925 122.396 18.8743 121.966 18.0372C121.57 17.2655 121.206 16.6818 120.879 16.2863L119.858 16.4207V19.4119C119.858 19.6499 120.008 19.8842 120.307 20.1184C120.607 20.3526 120.756 20.5791 120.756 20.8057C120.756 21.2588 120.392 21.4853 119.67 21.4853H115.965C115.239 21.4853 114.879 21.2588 114.879 20.8057C114.879 20.5791 115.028 20.3488 115.328 20.1184C115.623 19.888 115.773 19.6538 115.773 19.4157ZM119.85 11.8015V14.808H120.038C120.115 14.8196 120.173 14.8234 120.207 14.8234C120.967 14.8234 121.605 14.6084 122.127 14.1783C122.695 13.7252 122.975 13.1301 122.975 12.3928C122.975 11.8476 122.806 11.3868 122.465 11.0067C122.123 10.6266 121.689 10.4384 121.156 10.4384C120.288 10.4423 119.85 10.8953 119.85 11.8015Z" fill="#2E3192"/>
<path d="M130.37 9.04843H139.173C139.741 9.04843 140.079 9.14058 140.194 9.32105C140.271 9.45544 140.371 9.75878 140.482 10.2195C140.597 10.6842 140.651 11.0067 140.651 11.1872C140.651 11.8092 140.363 12.1202 139.783 12.1202C139.534 12.1202 139.292 11.9781 139.054 11.6902L138.509 10.9683C138.236 10.6918 137.875 10.5536 137.422 10.5536C137.015 10.5536 136.812 10.7993 136.812 11.287V19.408C136.812 19.6461 136.961 19.8803 137.261 20.1145C137.56 20.3488 137.71 20.5791 137.71 20.8057C137.71 21.2588 137.345 21.4853 136.624 21.4853H132.919C132.193 21.4853 131.832 21.2588 131.832 20.8057C131.832 20.5791 131.982 20.3488 132.281 20.1145C132.581 19.8803 132.731 19.6461 132.731 19.408V11.2947C132.731 10.807 132.527 10.5613 132.12 10.5613C131.667 10.5613 131.306 10.6995 131.034 10.976C130.919 11.1372 130.742 11.3676 130.496 11.671C130.254 11.9743 130.009 12.1241 129.755 12.1241C129.179 12.1241 128.888 11.813 128.888 11.191C128.888 11.0105 128.945 10.688 129.057 10.2234C129.172 9.75878 129.264 9.45928 129.345 9.32489C129.464 9.14058 129.801 9.04843 130.37 9.04843Z" fill="#2E3192"/>
</g>
<defs>
<linearGradient id="paint0_linear_26_6" x1="71.9541" y1="29.9909" x2="121.991" y2="65.3961" gradientUnits="userSpaceOnUse">
<stop stop-color="#50B848"/>
<stop offset="0.1132" stop-color="#43B75A"/>
<stop offset="0.436" stop-color="#00B592"/>
<stop offset="0.7016" stop-color="#00B5B7"/>
<stop offset="0.8965" stop-color="#00B4CE"/>
<stop offset="1" stop-color="#00B4D7"/>
</linearGradient>
<linearGradient id="paint1_linear_26_6" x1="75.4013" y1="25.1091" x2="125.444" y2="60.5187" gradientUnits="userSpaceOnUse">
<stop stop-color="#50B848"/>
<stop offset="0.1132" stop-color="#43B75A"/>
<stop offset="0.436" stop-color="#00B592"/>
<stop offset="0.7016" stop-color="#00B5B7"/>
<stop offset="0.8965" stop-color="#00B4CE"/>
<stop offset="1" stop-color="#00B4D7"/>
</linearGradient>
<linearGradient id="paint2_linear_26_6" x1="76.1931" y1="24.0737" x2="126.253" y2="59.4955" gradientUnits="userSpaceOnUse">
<stop stop-color="#50B848"/>
<stop offset="0.1132" stop-color="#43B75A"/>
<stop offset="0.436" stop-color="#00B592"/>
<stop offset="0.7016" stop-color="#00B5B7"/>
<stop offset="0.8965" stop-color="#00B4CE"/>
<stop offset="1" stop-color="#00B4D7"/>
</linearGradient>
<linearGradient id="paint3_linear_26_6" x1="81.6508" y1="16.3072" x2="131.695" y2="51.7176" gradientUnits="userSpaceOnUse">
<stop stop-color="#50B848"/>
<stop offset="0.1132" stop-color="#43B75A"/>
<stop offset="0.436" stop-color="#00B592"/>
<stop offset="0.7016" stop-color="#00B5B7"/>
<stop offset="0.8965" stop-color="#00B4CE"/>
<stop offset="1" stop-color="#00B4D7"/>
</linearGradient>
<linearGradient id="paint4_linear_26_6" x1="84.7816" y1="11.8681" x2="134.839" y2="47.2881" gradientUnits="userSpaceOnUse">
<stop stop-color="#50B848"/>
<stop offset="0.1132" stop-color="#43B75A"/>
<stop offset="0.436" stop-color="#00B592"/>
<stop offset="0.7016" stop-color="#00B5B7"/>
<stop offset="0.8965" stop-color="#00B4CE"/>
<stop offset="1" stop-color="#00B4D7"/>
</linearGradient>
<linearGradient id="paint5_linear_26_6" x1="88.4087" y1="6.66611" x2="138.509" y2="42.1166" gradientUnits="userSpaceOnUse">
<stop stop-color="#50B848"/>
<stop offset="0.1132" stop-color="#43B75A"/>
<stop offset="0.436" stop-color="#00B592"/>
<stop offset="0.7016" stop-color="#00B5B7"/>
<stop offset="0.8965" stop-color="#00B4CE"/>
<stop offset="1" stop-color="#00B4D7"/>
</linearGradient>
<linearGradient id="paint6_linear_26_6" x1="92.8198" y1="0.589069" x2="142.835" y2="35.9795" gradientUnits="userSpaceOnUse">
<stop stop-color="#50B848"/>
<stop offset="0.1132" stop-color="#43B75A"/>
<stop offset="0.436" stop-color="#00B592"/>
<stop offset="0.7016" stop-color="#00B5B7"/>
<stop offset="0.8965" stop-color="#00B4CE"/>
<stop offset="1" stop-color="#00B4D7"/>
</linearGradient>
<linearGradient id="paint7_linear_26_6" x1="98.2222" y1="-7.16777" x2="148.286" y2="28.2566" gradientUnits="userSpaceOnUse">
<stop stop-color="#50B848"/>
<stop offset="0.1132" stop-color="#43B75A"/>
<stop offset="0.436" stop-color="#00B592"/>
<stop offset="0.7016" stop-color="#00B5B7"/>
<stop offset="0.8965" stop-color="#00B4CE"/>
<stop offset="1" stop-color="#00B4D7"/>
<stop offset="1" stop-color="#00B4D7"/>
</linearGradient>
<linearGradient id="paint8_linear_26_6" x1="27.7392" y1="-6.10033" x2="67.1248" y2="58.6774" gradientUnits="userSpaceOnUse">
<stop stop-color="#50B848"/>
<stop offset="0.1132" stop-color="#43B75A"/>
<stop offset="0.436" stop-color="#00B592"/>
<stop offset="0.7016" stop-color="#00B5B7"/>
<stop offset="0.8965" stop-color="#00B4CE"/>
<stop offset="1" stop-color="#00B4D7"/>
</linearGradient>
<linearGradient id="paint9_linear_26_6" x1="10.0327" y1="4.1837" x2="42.1028" y2="56.9297" gradientUnits="userSpaceOnUse">
<stop stop-color="#4FB848"/>
<stop offset="0.1095" stop-color="#43B75A"/>
<stop offset="0.4336" stop-color="#00B591"/>
<stop offset="0.7003" stop-color="#00B4B7"/>
<stop offset="0.8961" stop-color="#00B4CE"/>
<stop offset="1" stop-color="#00B4D6"/>
</linearGradient>
<clipPath id="clip0_26_6">
<rect width="161.152" height="53.9022" fill="white" transform="translate(0.847855 0.424377)"/>
</clipPath>
</defs>
</svg>
