<svg width="241" height="93" viewBox="0 0 241 93" fill="none" xmlns="http://www.w3.org/2000/svg">
<path opacity="0.2" d="M227.414 91.6686C226.633 92.4497 225.367 92.4497 224.586 91.6686L211.858 78.9407C211.077 78.1596 211.077 76.8933 211.858 76.1123C212.639 75.3312 213.905 75.3312 214.686 76.1123L226 87.426L237.314 76.1123C238.095 75.3312 239.361 75.3312 240.142 76.1123C240.923 76.8933 240.923 78.1596 240.142 78.9407L227.414 91.6686ZM1.93284 72.391C2.1744 71.3132 3.24398 70.6353 4.32181 70.8768C5.39965 71.1184 6.07758 72.188 5.83601 73.2658L1.93284 72.391ZM20.7264 42.9646C20.0261 43.8188 18.7659 43.9436 17.9117 43.2434C17.0575 42.5431 16.9327 41.2829 17.633 40.4287L20.7264 42.9646ZM45.0858 17.7989C46.0469 17.2546 47.2673 17.5925 47.8116 18.5536C48.356 19.5148 48.0181 20.7352 47.0569 21.2795L45.0858 17.7989ZM47.9901 20.7569C47.0238 21.292 45.8067 20.9425 45.2715 19.9762C44.7364 19.0099 45.0859 17.7928 46.0522 17.2577L47.9901 20.7569ZM79.1527 4.52105C80.2255 4.2581 81.3084 4.91463 81.5713 5.98744C81.8343 7.06026 81.1778 8.14311 80.1049 8.40606L79.1527 4.52105ZM114.354 4.02283C113.25 4.04159 112.339 3.16148 112.321 2.05708C112.302 0.95266 113.182 0.04216 114.286 0.023407L114.354 4.02283ZM149.557 3.40477C150.636 3.63833 151.322 4.70285 151.089 5.78245C150.855 6.86204 149.791 7.54789 148.711 7.31433L149.557 3.40477ZM149.766 7.54681C148.688 7.30482 148.01 6.23498 148.252 5.15724C148.494 4.07951 149.564 3.402 150.642 3.64399L149.766 7.54681ZM183.867 16.0868C184.831 16.6261 185.175 17.8447 184.636 18.8087C184.096 19.7727 182.878 20.117 181.914 19.5777L183.867 16.0868ZM207.964 41.46C207.284 40.5898 207.438 39.3329 208.308 38.6525C209.178 37.9722 210.435 38.126 211.115 38.9962L207.964 41.46ZM226.082 71.2969C226.31 72.3776 225.619 73.4388 224.538 73.6671C223.457 73.8955 222.396 73.2045 222.168 72.1238L226.082 71.2969ZM222.38 73.1615C222.166 72.0779 222.871 71.0259 223.954 70.8118C225.038 70.5977 226.09 71.3025 226.304 72.3862L222.38 73.1615ZM0 90.2544C0 83.9963 0.666916 78.0395 1.93284 72.391L5.83601 73.2658C4.63622 78.6192 4 84.2823 4 90.2544H0ZM17.633 40.4287C25.0546 31.3756 34.4446 23.8254 45.0858 17.7989L47.0569 21.2795C36.7794 27.1 27.791 34.347 20.7264 42.9646L17.633 40.4287ZM46.0522 17.2577C56.1685 11.6553 67.3958 7.40269 79.1527 4.52105L80.1049 8.40606C68.6543 11.2126 57.764 15.3441 47.9901 20.7569L46.0522 17.2577ZM114.286 0.023407C126.215 -0.179108 138.147 0.936348 149.557 3.40477L148.711 7.31433C137.617 4.91426 125.992 3.82524 114.354 4.02283L114.286 0.023407ZM150.642 3.64399C162.487 6.30352 173.764 10.4347 183.867 16.0868L181.914 19.5777C172.189 14.137 161.282 10.1326 149.766 7.54681L150.642 3.64399ZM211.115 38.9962C218.254 48.1269 223.459 58.8878 226.082 71.2969L222.168 72.1238C219.674 60.3229 214.735 50.1197 207.964 41.46L211.115 38.9962ZM226.304 72.3862C227.417 78.0156 228 83.9714 228 90.2544H224C224 84.2201 223.44 78.5244 222.38 73.1615L226.304 72.3862Z" fill="#50B848"/>
</svg>
