<svg width="241" height="93" viewBox="0 0 241 93" fill="none" xmlns="http://www.w3.org/2000/svg">
<path opacity="0.2" d="M227.414 0.585786C226.633 -0.195262 225.367 -0.195262 224.586 0.585786L211.858 13.3137C211.077 14.0948 211.077 15.3611 211.858 16.1421C212.639 16.9232 213.905 16.9232 214.686 16.1421L226 4.82843L237.314 16.1421C238.095 16.9232 239.361 16.9232 240.142 16.1421C240.923 15.3611 240.923 14.0948 240.142 13.3137L227.414 0.585786ZM1.93284 19.8634C2.1744 20.9412 3.24398 21.6191 4.32181 21.3776C5.39965 21.136 6.07758 20.0664 5.83601 18.9886L1.93284 19.8634ZM20.7264 49.2898C20.0261 48.4356 18.7659 48.3108 17.9117 49.011C17.0575 49.7113 16.9327 50.9715 17.633 51.8257L20.7264 49.2898ZM45.0858 74.4555C46.0469 74.9998 47.2673 74.6619 47.8116 73.7008C48.356 72.7396 48.0181 71.5192 47.0569 70.9749L45.0858 74.4555ZM47.9901 71.4975C47.0238 70.9624 45.8067 71.3119 45.2715 72.2782C44.7364 73.2445 45.0859 74.4616 46.0522 74.9967L47.9901 71.4975ZM79.1527 87.7333C80.2255 87.9963 81.3084 87.3398 81.5713 86.267C81.8343 85.1941 81.1778 84.1113 80.1049 83.8483L79.1527 87.7333ZM114.354 88.2316C113.25 88.2128 112.339 89.0929 112.321 90.1973C112.302 91.3017 113.182 92.2122 114.286 92.231L114.354 88.2316ZM149.557 88.8496C150.636 88.6161 151.322 87.5515 151.089 86.4719C150.855 85.3924 149.791 84.7065 148.711 84.9401L149.557 88.8496ZM149.766 84.7076C148.688 84.9496 148.01 86.0194 148.252 87.0972C148.494 88.1749 149.564 88.8524 150.642 88.6104L149.766 84.7076ZM183.867 76.1676C184.831 75.6283 185.175 74.4097 184.636 73.4457C184.096 72.4817 182.878 72.1374 181.914 72.6767L183.867 76.1676ZM207.964 50.7944C207.284 51.6646 207.438 52.9215 208.308 53.6019C209.178 54.2822 210.435 54.1284 211.115 53.2582L207.964 50.7944ZM226.082 20.9575C226.31 19.8768 225.619 18.8156 224.538 18.5873C223.457 18.3589 222.396 19.0499 222.168 20.1306L226.082 20.9575ZM222.38 19.0929C222.166 20.1765 222.871 21.2285 223.954 21.4426C225.038 21.6567 226.09 20.9519 226.304 19.8682L222.38 19.0929ZM0 2C0 8.25808 0.666916 14.2149 1.93284 19.8634L5.83601 18.9886C4.63622 13.6352 4 7.97206 4 2H0ZM17.633 51.8257C25.0546 60.8788 34.4446 68.429 45.0858 74.4555L47.0569 70.9749C36.7794 65.1544 27.791 57.9073 20.7264 49.2898L17.633 51.8257ZM46.0522 74.9967C56.1685 80.5991 67.3958 84.8517 79.1527 87.7333L80.1049 83.8483C68.6543 81.0418 57.764 76.9103 47.9901 71.4975L46.0522 74.9967ZM114.286 92.231C126.215 92.4335 138.147 91.318 149.557 88.8496L148.711 84.9401C137.617 87.3401 125.992 88.4292 114.354 88.2316L114.286 92.231ZM150.642 88.6104C162.487 85.9509 173.764 81.8197 183.867 76.1676L181.914 72.6767C172.189 78.1174 161.282 82.1218 149.766 84.7076L150.642 88.6104ZM211.115 53.2582C218.254 44.1275 223.459 33.3666 226.082 20.9575L222.168 20.1306C219.674 31.9315 214.735 42.1347 207.964 50.7944L211.115 53.2582ZM226.304 19.8682C227.417 14.2388 228 8.28296 228 2H224C224 8.03433 223.44 13.73 222.38 19.0929L226.304 19.8682Z" fill="#50B848"/>
</svg>
