<svg width="50" height="50" viewBox="0 0 50 50" fill="none" xmlns="http://www.w3.org/2000/svg">
<path d="M49.0308 10.0485C49.0275 10.0485 49.0243 10.0485 49.0211 10.0485H45.7356V8.92426C45.7533 8.47929 45.4655 8.07938 45.0378 7.95508C42.7568 7.35734 40.408 7.05762 38.05 7.06344C34.1733 7.06344 28.8913 7.9357 24.9855 11.9093C21.1087 7.89693 15.7879 7.06344 11.9209 7.06344C9.5629 7.05762 7.21409 7.35734 4.93313 7.95508C4.50548 8.07938 4.21763 8.47929 4.23532 8.92426V10.0388H0.96918C0.43395 10.0388 0 10.4728 0 11.008V41.9636C0 42.4988 0.43395 42.9328 0.96918 42.9328C1.13564 42.9323 1.29919 42.8889 1.44408 42.8068C1.541 42.7583 11.2328 37.4569 24.7626 40.8684H24.9079H24.9952C25.0724 40.8778 25.1505 40.8778 25.2278 40.8684C38.7963 37.4278 48.4881 42.7196 48.5462 42.8068C48.8461 42.9799 49.2156 42.9799 49.5154 42.8068C49.8134 42.6348 49.9979 42.3175 50 41.9733V11.0177C50 10.4825 49.5662 10.0485 49.0308 10.0485ZM1.93836 40.4226V11.9869H4.2547V36.2939C4.24864 36.8291 4.67763 37.2679 5.21286 37.274C5.26519 37.2746 5.31753 37.271 5.36926 37.2631C7.37425 36.957 9.3985 36.795 11.4266 36.7785C14.236 36.7298 17.0337 37.1524 19.7034 38.0287C13.6745 37.2997 7.55924 38.1237 1.93836 40.4226ZM11.4266 34.8498C9.66382 34.8538 7.90306 34.9671 6.15429 35.189V9.68992C8.04129 9.26953 9.96826 9.05498 11.9015 9.05026C15.5263 9.05026 20.5272 9.88375 23.9969 13.7992L24.026 37.9415C22.0101 36.6234 18.0752 34.8498 11.4266 34.8498ZM25.9643 13.7992C29.434 9.92252 34.435 9.05026 38.0597 9.05026C39.9929 9.05595 41.9198 9.27038 43.8069 9.68992V35.189C42.068 34.965 40.3169 34.8485 38.5637 34.8401C31.9539 34.8401 28.0093 36.6137 25.9643 37.9318V13.7992ZM48.0519 40.4226C42.4191 38.1174 36.2897 37.2933 30.2481 38.0287C32.9304 37.1492 35.7414 36.7265 38.5637 36.7785C40.6045 36.7899 42.6419 36.9486 44.6598 37.2534C45.189 37.3337 45.6832 36.9698 45.7635 36.4406C45.7713 36.3889 45.775 36.3366 45.7744 36.2842V11.9869H48.0907L48.0519 40.4226Z" fill="white"/>
</svg>
