<svg width="25" height="25" viewBox="0 0 25 25" fill="none" xmlns="http://www.w3.org/2000/svg">
<path d="M20.7329 17.6228L16.6679 13.9268C16.2689 13.5638 15.6529 13.5828 15.2769 13.9698L12.8839 16.4308C12.3079 16.3208 11.1499 15.9598 9.95789 14.7708C8.76589 13.5778 8.40489 12.4168 8.29789 11.8448L10.7569 9.45079C11.1449 9.07479 11.1629 8.45979 10.7999 8.05979L7.10489 3.99579C6.74189 3.59479 6.12489 3.55679 5.71389 3.90879L3.54389 5.76979C3.37089 5.94379 3.26789 6.17379 3.25389 6.41879C3.23889 6.66879 2.95289 12.5908 7.54489 17.1848C11.5509 21.1898 16.5689 21.4828 17.9509 21.4828C18.1529 21.4828 18.2769 21.4768 18.3099 21.4748C18.5549 21.4608 18.7849 21.3578 18.9579 21.1838L20.8179 19.0128C21.1719 18.6018 21.1329 17.9858 20.7329 17.6228Z" fill="white"/>
</svg>
