<?xml version="1.0" encoding="iso-8859-1"?>
<!-- Uploaded to: SVG Repo, www.svgrepo.com, Generator: SVG Repo Mixer Tools -->
<svg fill="#fff" height="800px" width="800px" version="1.1" id="Layer_1" xmlns="http://www.w3.org/2000/svg" xmlns:xlink="http://www.w3.org/1999/xlink" 
	 viewBox="0 0 512 512" xml:space="preserve">
<g transform="translate(0 -1)">
	<g>
		<g>
			<path d="M329.745,478.288c4.79,0,8.678-3.879,8.678-8.678s-3.888-8.678-8.678-8.678h-26.034c-4.79,0-8.678,3.879-8.678,8.678
				s3.888,8.678,8.678,8.678H329.745z"/>
			<path d="M338.423,495.644h-43.39c-4.79,0-8.678,3.879-8.678,8.678s3.888,8.678,8.678,8.678h43.39c4.79,0,8.678-3.879,8.678-8.678
				S343.214,495.644,338.423,495.644z"/>
			<path d="M468.593,374.153c0-20.523-15.655-43.39-38.105-43.39c-8.548,0-16.297,3.193-22.641,8.27
				c-0.208-20.463-15.768-43.086-38.035-43.086c-8.513,0-16.306,3.332-22.71,8.556c-0.113-20.471-15.733-43.164-38.105-43.164
				c-8.548,0-16.297,3.193-22.641,8.27v-51.66c0-20.523-15.646-43.39-38.105-43.39c-22.892,0-39.997,22.91-39.997,43.39V374.56
				c-7.611-15.811-17.2-30.824-27.631-41.255c-15.204-15.195-42.895-17.243-58.125-4.304c-5.033,4.296-19.829,20.602,1.562,50.228
				c17.061,23.639,24.975,72.886,30.225,105.481c0.72,4.478,1.388,8.635,2.022,12.392c0.72,4.226,4.391,7.22,8.548,7.22
				c0.486,0,0.972-0.043,1.458-0.121c4.729-0.798,7.914-5.285,7.107-10.014c-0.625-3.697-1.293-7.81-2.005-12.236
				c-5.502-34.217-13.815-85.912-33.28-112.874c-5.111-7.073-12.47-19.977-4.382-26.867c7.446-6.309,25.218-6.014,34.599,3.367
				c21.114,21.122,39.901,67.541,39.901,89.322c0,4.799,3.888,8.678,8.678,8.678s8.678-3.879,8.678-8.678V217.949
				c0-12.895,11.42-26.034,22.641-26.034c11.689,0,20.749,13.989,20.749,26.034v164.881c0,4.799,3.888,8.678,8.678,8.678
				c4.79,0,8.678-3.879,8.678-8.678v-78.102c0-12.895,11.42-26.034,22.641-26.034c11.689,0,20.749,13.989,20.749,26.034v86.78
				c0,4.799,3.888,8.678,8.678,8.678s8.678-3.879,8.678-8.678v-52.068c0-12.705,11.672-26.138,22.71-26.138
				c11.646,0,20.68,14.05,20.68,26.138v69.424c0,4.799,3.888,8.678,8.678,8.678s8.678-3.879,8.678-8.678v-34.712
				c0-12.895,11.42-26.034,22.641-26.034c11.689,0,20.749,13.989,20.749,26.034l0.035,121.518c0.017,4.79,3.896,8.652,8.678,8.652
				h0.026c4.799-0.017,8.669-3.914,8.652-8.704L468.593,374.153z"/>
			<path d="M78.084,1C58.941,1,43.372,16.568,43.372,35.712s15.568,34.712,34.712,34.712c19.144,0,34.712-15.568,34.712-34.712
				S97.228,1,78.084,1z"/>
			<path d="M164.864,70.424c19.144,0,34.712-15.568,34.712-34.712S184.008,1,164.864,1s-34.712,15.568-34.712,34.712
				S145.72,70.424,164.864,70.424z"/>
			<path d="M251.644,70.424c19.144,0,34.712-15.568,34.712-34.712S270.787,1,251.644,1c-19.144,0-34.712,15.568-34.712,34.712
				S232.5,70.424,251.644,70.424z"/>
			<path d="M78.084,87.78c-19.144,0-34.712,15.568-34.712,34.712c0,19.144,15.568,34.712,34.712,34.712
				c19.144,0,34.712-15.568,34.712-34.712C112.796,103.348,97.228,87.78,78.084,87.78z"/>
			<path d="M164.864,157.203c19.144,0,34.712-15.568,34.712-34.712c0-19.144-15.568-34.712-34.712-34.712
				s-34.712,15.568-34.712,34.712C130.152,141.635,145.72,157.203,164.864,157.203z"/>
			<path d="M251.644,157.203c19.144,0,34.712-15.568,34.712-34.712c0-19.144-15.568-34.712-34.712-34.712
				c-19.144,0-34.712,15.568-34.712,34.712C216.932,141.635,232.5,157.203,251.644,157.203z"/>
			<path d="M78.084,174.559c-19.144,0-34.712,15.568-34.712,34.712s15.568,34.712,34.712,34.712
				c19.144,0,34.712-15.568,34.712-34.712S97.228,174.559,78.084,174.559z"/>
			<path d="M164.864,243.983c19.144,0,34.712-15.568,34.712-34.712s-15.568-34.712-34.712-34.712s-34.712,15.568-34.712,34.712
				S145.72,243.983,164.864,243.983z"/>
		</g>
	</g>
</g>
</svg>