<svg width="18" height="18" viewBox="0 0 18 18" fill="none" xmlns="http://www.w3.org/2000/svg">
<path d="M2.31524 4.42358C3.48912 4.42358 4.44073 3.47197 4.44073 2.29809C4.44073 1.12422 3.48912 0.172607 2.31524 0.172607C1.14137 0.172607 0.189758 1.12422 0.189758 2.29809C0.189758 3.47197 1.14137 4.42358 2.31524 4.42358Z" fill="white"/>
<path d="M6.44792 6.03404V17.8262H10.1092V11.9947C10.1092 10.456 10.3987 8.96581 12.3066 8.96581C14.1883 8.96581 14.2116 10.7251 14.2116 12.0919V17.8272H17.8748V11.3604C17.8748 8.18381 17.191 5.74261 13.4782 5.74261C11.6956 5.74261 10.5007 6.72084 10.0121 7.64661H9.96255V6.03404H6.44792ZM0.48141 6.03404H4.14855V17.8262H0.48141V6.03404Z" fill="white"/>
</svg>
