<svg width="220" height="74" viewBox="0 0 220 74" fill="none" xmlns="http://www.w3.org/2000/svg">
<g clip-path="url(#clip0_12_193)">
<mask id="mask0_12_193" style="mask-type:luminance" maskUnits="userSpaceOnUse" x="95" y="34" width="19" height="24">
<path d="M100.193 39.3949H102.403C103.33 39.3949 104.175 39.573 104.987 39.9131C105.8 40.2531 106.498 40.7227 107.099 41.338C107.701 41.9371 108.172 42.6333 108.529 43.4429C108.871 44.2363 109.049 45.0945 109.049 46.0012C109.049 46.908 108.871 47.7662 108.529 48.5758C108.188 49.3854 107.717 50.0816 107.099 50.6807C106.498 51.2798 105.8 51.7494 104.987 52.0894C104.175 52.4294 103.33 52.6076 102.403 52.6076H100.193V39.3787V39.3949ZM95.7249 34.9907V57.0442H102.387C103.411 57.0442 104.386 56.9146 105.328 56.6556C106.271 56.3965 107.148 56.0241 107.977 55.5383C108.789 55.0525 109.537 54.4696 110.203 53.8058C110.869 53.1419 111.454 52.3971 111.926 51.5713C112.413 50.7617 112.787 49.8873 113.047 48.9482C113.307 48.009 113.453 47.0375 113.453 46.0174C113.453 44.9973 113.323 44.0258 113.047 43.0867C112.787 42.1476 112.413 41.2732 111.926 40.4636C111.454 39.654 110.869 38.9092 110.203 38.2453C109.537 37.5652 108.789 36.9985 107.977 36.5128C107.148 36.027 106.271 35.6546 105.328 35.3955C104.386 35.1365 103.411 35.0069 102.387 35.0069H95.7249V34.9907Z" fill="white"/>
</mask>
<g mask="url(#mask0_12_193)">
<path d="M101.658 26.6567L85.3182 49.6694L107.564 65.3528L123.903 42.34L101.658 26.6567Z" fill="url(#paint0_linear_12_193)"/>
</g>
<mask id="mask1_12_193" style="mask-type:luminance" maskUnits="userSpaceOnUse" x="114" y="33" width="7" height="25">
<path d="M115.322 57.0279H119.563V40.5607H115.322V57.0279ZM116.345 33.5172C116.004 33.6629 115.695 33.8572 115.452 34.1163C115.192 34.3754 114.997 34.6668 114.85 35.0069C114.704 35.3469 114.623 35.7193 114.623 36.0917C114.623 36.4803 114.688 36.8528 114.85 37.1928C114.997 37.5328 115.192 37.8243 115.452 38.0833C115.695 38.3424 116.004 38.5367 116.345 38.6824C116.687 38.8282 117.044 38.9091 117.45 38.9091C117.857 38.9091 118.198 38.8282 118.555 38.6824C118.897 38.5367 119.205 38.3424 119.465 38.0833C119.725 37.8243 119.92 37.5328 120.066 37.1928C120.213 36.8528 120.294 36.4965 120.294 36.0917C120.294 35.6869 120.229 35.3469 120.066 35.0069C119.92 34.6668 119.709 34.3592 119.465 34.1163C119.205 33.8572 118.897 33.6629 118.555 33.5172C118.214 33.3715 117.84 33.2905 117.45 33.2905C117.06 33.2905 116.687 33.3715 116.345 33.5172Z" fill="white"/>
</mask>
<g mask="url(#mask1_12_193)">
<path d="M116.518 30.626L103.401 49.1072L118.406 59.6817L131.523 41.2005L116.518 30.626Z" fill="url(#paint1_linear_12_193)"/>
</g>
<mask id="mask2_12_193" style="mask-type:luminance" maskUnits="userSpaceOnUse" x="121" y="39" width="18" height="25">
<path d="M128.077 52.802C127.574 52.5915 127.135 52.3 126.761 51.8952C126.387 51.5066 126.079 51.037 125.867 50.4865C125.656 49.936 125.543 49.3207 125.543 48.6406C125.543 47.9606 125.656 47.2805 125.867 46.73C126.079 46.1795 126.387 45.7099 126.761 45.3213C127.135 44.9489 127.574 44.6574 128.077 44.4631C128.597 44.2688 129.134 44.1717 129.702 44.1717C130.271 44.1717 130.824 44.3012 131.327 44.5441C131.831 44.7869 132.27 45.127 132.66 45.548C133.033 45.969 133.342 46.4385 133.57 46.9729C133.781 47.5072 133.895 48.0739 133.895 48.6406C133.895 49.2074 133.781 49.7741 133.57 50.3084C133.342 50.8427 133.05 51.3285 132.66 51.7333C132.27 52.1543 131.831 52.4781 131.327 52.7372C130.824 52.9963 130.271 53.1096 129.702 53.1096C129.134 53.1096 128.581 53.0125 128.077 52.802ZM126.436 40.5932C125.413 41.0304 124.519 41.6457 123.755 42.4229C122.991 43.2001 122.39 44.1231 121.935 45.1918C121.496 46.2604 121.269 47.41 121.269 48.6568C121.269 50.0008 121.496 51.2152 121.935 52.3C122.374 53.3687 122.991 54.2916 123.755 55.0365C124.519 55.7813 125.413 56.348 126.436 56.7528C127.46 57.1576 128.549 57.3519 129.719 57.3519C130.06 57.3519 130.45 57.3357 130.856 57.2871C131.262 57.2548 131.652 57.1738 132.026 57.0605C132.4 56.9471 132.741 56.8176 133.05 56.6557C133.358 56.4937 133.586 56.267 133.765 55.9918C133.651 56.4128 133.505 56.8176 133.31 57.19C133.115 57.5624 132.871 57.9024 132.546 58.1939C132.237 58.5015 131.847 58.7282 131.376 58.8901C130.905 59.0682 130.352 59.1492 129.686 59.1492L127.606 59.1168V63.3105L129.719 63.3429C130.889 63.3429 131.961 63.1162 133.001 62.6791C134.025 62.2419 134.918 61.6428 135.682 60.8817C136.446 60.1207 137.047 59.2302 137.502 58.2101C137.941 57.2062 138.168 56.1213 138.168 54.9555V40.5932H137.161L135.52 42.5525C135.13 42.18 134.707 41.84 134.252 41.5162C133.813 41.1923 133.342 40.9171 132.838 40.6904C132.351 40.4637 131.847 40.2694 131.311 40.1399C130.791 40.0103 130.255 39.9456 129.719 39.9456C128.565 39.9456 127.46 40.1722 126.436 40.6094" fill="white"/>
</mask>
<g mask="url(#mask2_12_193)">
<path d="M126.892 31.9922L110.187 55.5205L132.512 71.26L149.217 47.7317L126.892 31.9922Z" fill="url(#paint2_linear_12_193)"/>
</g>
<mask id="mask3_12_193" style="mask-type:luminance" maskUnits="userSpaceOnUse" x="140" y="33" width="6" height="25">
<path d="M140.719 57.0279H144.977V40.5607H140.719V57.0279ZM141.743 33.5172C141.402 33.6629 141.093 33.8572 140.849 34.1163C140.589 34.3754 140.394 34.6668 140.248 35.0069C140.102 35.3469 140.037 35.7193 140.037 36.0917C140.037 36.4803 140.102 36.8528 140.248 37.1928C140.394 37.5328 140.589 37.8243 140.849 38.0833C141.109 38.3424 141.402 38.5367 141.743 38.6824C142.084 38.8282 142.458 38.9091 142.848 38.9091C143.238 38.9091 143.596 38.8282 143.953 38.6824C144.294 38.5367 144.587 38.3424 144.863 38.0833C145.123 37.8243 145.318 37.5328 145.464 37.1928C145.61 36.8528 145.692 36.4965 145.692 36.0917C145.692 35.6869 145.61 35.3469 145.464 35.0069C145.318 34.6668 145.107 34.3592 144.863 34.1163C144.603 33.8572 144.294 33.6629 143.953 33.5172C143.596 33.3715 143.238 33.2905 142.848 33.2905C142.458 33.2905 142.084 33.3715 141.743 33.5172Z" fill="white"/>
</mask>
<g mask="url(#mask3_12_193)">
<path d="M141.925 30.6243L128.807 49.1055L143.812 59.68L156.929 41.1988L141.925 30.6243Z" fill="url(#paint3_linear_12_193)"/>
</g>
<mask id="mask4_12_193" style="mask-type:luminance" maskUnits="userSpaceOnUse" x="147" y="34" width="19" height="24">
<path d="M152.419 48.2034H159.049C159.357 48.2034 159.65 48.2682 159.91 48.3653C160.17 48.4787 160.414 48.6244 160.609 48.8349C160.82 49.0292 160.966 49.2721 161.08 49.5312C161.194 49.7902 161.259 50.0817 161.259 50.3893C161.259 50.697 161.194 50.9884 161.08 51.2475C160.966 51.5066 160.82 51.7495 160.609 51.9438C160.414 52.1381 160.186 52.3 159.91 52.4133C159.65 52.5267 159.357 52.5914 159.049 52.5914H152.419V48.1872V48.2034ZM152.419 39.3788H159.049C159.357 39.3788 159.65 39.4436 159.91 39.5407C160.17 39.6541 160.414 39.816 160.609 40.0103C160.82 40.2046 160.966 40.4475 161.08 40.7066C161.194 40.9818 161.259 41.2571 161.259 41.5647C161.259 41.8724 161.194 42.1638 161.08 42.4391C160.966 42.7144 160.82 42.941 160.609 43.1515C160.414 43.3458 160.186 43.5078 159.91 43.6211C159.65 43.7345 159.357 43.783 159.049 43.783H152.419V39.3626V39.3788ZM147.983 34.9746V57.028H159.049C159.959 57.028 160.82 56.8499 161.632 56.5099C162.429 56.1699 163.127 55.6841 163.728 55.085C164.33 54.4859 164.801 53.7897 165.158 52.9962C165.5 52.1866 165.678 51.3447 165.678 50.4217C165.678 50.0169 165.63 49.5959 165.516 49.1588C165.402 48.7216 165.256 48.3006 165.045 47.8958C164.85 47.491 164.59 47.1348 164.297 46.7947C164.005 46.4547 163.68 46.1956 163.322 46.0013C163.663 45.7908 163.988 45.5156 164.281 45.1917C164.573 44.8679 164.817 44.4955 165.028 44.1069C165.223 43.7021 165.386 43.2973 165.516 42.8601C165.63 42.4229 165.678 42.0019 165.678 41.5971C165.678 40.6904 165.5 39.8322 165.158 39.0226C164.801 38.2292 164.33 37.5329 163.728 36.9338C163.127 36.3347 162.429 35.8652 161.632 35.5089C160.82 35.1689 159.975 34.9908 159.049 34.9908H147.983V34.9746Z" fill="white"/>
</mask>
<g mask="url(#mask4_12_193)">
<path d="M153.891 26.6642L137.557 49.6609L159.773 65.3294L176.107 42.3327L153.891 26.6642Z" fill="url(#paint4_linear_12_193)"/>
</g>
<mask id="mask5_12_193" style="mask-type:luminance" maskUnits="userSpaceOnUse" x="167" y="39" width="17" height="19">
<path d="M173.852 52.7695C173.348 52.5428 172.909 52.219 172.519 51.8142C172.146 51.4094 171.853 50.9398 171.642 50.4055C171.431 49.8549 171.317 49.272 171.317 48.6405C171.317 47.9605 171.414 47.3452 171.642 46.7947C171.853 46.2441 172.146 45.7746 172.519 45.386C172.893 44.9974 173.348 44.6897 173.852 44.4792C174.372 44.2687 174.908 44.1554 175.477 44.1554C176.045 44.1554 176.598 44.2525 177.102 44.4792C177.605 44.6897 178.044 44.9974 178.434 45.386C178.808 45.7908 179.117 46.2603 179.328 46.7947C179.555 47.3452 179.669 47.9605 179.669 48.6405C179.669 49.3206 179.555 49.9197 179.328 50.4702C179.117 51.0208 178.808 51.4903 178.434 51.8789C178.044 52.2675 177.605 52.5752 177.102 52.7857C176.582 52.9962 176.045 53.1095 175.477 53.1095C174.908 53.1095 174.356 52.9962 173.852 52.7695ZM172.211 40.577C171.187 41.0141 170.293 41.6294 169.53 42.3905C168.766 43.1677 168.165 44.0906 167.726 45.1593C167.271 46.2279 167.06 47.3776 167.06 48.6405C167.06 49.9035 167.287 51.0208 167.726 52.0732C168.165 53.1419 168.766 54.0487 169.53 54.8259C170.293 55.6031 171.187 56.2022 172.211 56.6556C173.234 57.0927 174.323 57.3194 175.493 57.3194C176.663 57.3194 177.768 57.0927 178.792 56.6556C179.815 56.2022 180.709 55.6031 181.473 54.8259C182.237 54.0487 182.838 53.1419 183.276 52.0732C183.715 51.0046 183.943 49.8711 183.943 48.6405C183.943 47.329 183.715 46.1308 183.276 45.0621C182.838 43.9935 182.237 43.0705 181.473 42.3095C180.709 41.5485 179.815 40.9656 178.792 40.5446C177.768 40.1398 176.679 39.9131 175.493 39.9131C174.307 39.9131 173.234 40.1398 172.211 40.577Z" fill="white"/>
</mask>
<g mask="url(#mask5_12_193)">
<path d="M172.677 31.9976L158.811 51.5183L178.295 65.2598L192.161 45.7391L172.677 31.9976Z" fill="url(#paint5_linear_12_193)"/>
</g>
<mask id="mask6_12_193" style="mask-type:luminance" maskUnits="userSpaceOnUse" x="184" y="39" width="18" height="19">
<path d="M191.515 52.7695C191.011 52.5428 190.572 52.219 190.182 51.8142C189.809 51.4094 189.516 50.9398 189.289 50.4055C189.077 49.8549 188.964 49.272 188.964 48.6405C188.964 47.9605 189.077 47.3452 189.289 46.7947C189.5 46.2441 189.809 45.7746 190.182 45.386C190.556 44.9974 190.995 44.6897 191.515 44.4792C192.035 44.2687 192.571 44.1554 193.14 44.1554C193.709 44.1554 194.261 44.2525 194.765 44.4792C195.268 44.6897 195.723 44.9974 196.097 45.386C196.471 45.7908 196.78 46.2603 197.007 46.7947C197.218 47.3452 197.332 47.9605 197.332 48.6405C197.332 49.3206 197.218 49.9197 197.007 50.4702C196.78 51.0208 196.487 51.4903 196.097 51.8789C195.723 52.2675 195.268 52.5752 194.765 52.7857C194.261 52.9962 193.709 53.1095 193.14 53.1095C192.571 53.1095 192.019 52.9962 191.515 52.7695ZM189.874 40.577C188.85 41.0141 187.956 41.6294 187.193 42.3905C186.429 43.1677 185.828 44.0906 185.389 45.1593C184.95 46.2279 184.723 47.3776 184.723 48.6405C184.723 49.9035 184.95 51.0208 185.389 52.0732C185.828 53.1419 186.429 54.0487 187.193 54.8259C187.956 55.6031 188.85 56.2022 189.874 56.6556C190.897 57.0927 191.986 57.3194 193.156 57.3194C194.326 57.3194 195.431 57.0927 196.455 56.6556C197.478 56.2022 198.372 55.6031 199.136 54.8259C199.9 54.0487 200.501 53.1419 200.94 52.0732C201.394 51.0046 201.606 49.8711 201.606 48.6405C201.606 47.329 201.378 46.1308 200.94 45.0621C200.501 43.9935 199.9 43.0705 199.136 42.3095C198.372 41.5485 197.478 40.9656 196.455 40.5446C195.431 40.1398 194.342 39.9131 193.156 39.9131C191.97 39.9131 190.897 40.1398 189.874 40.577Z" fill="white"/>
</mask>
<g mask="url(#mask6_12_193)">
<path d="M190.356 32.0095L176.49 51.5303L195.974 65.2718L209.84 45.751L190.356 32.0095Z" fill="url(#paint6_linear_12_193)"/>
</g>
<mask id="mask7_12_193" style="mask-type:luminance" maskUnits="userSpaceOnUse" x="203" y="34" width="16" height="24">
<path d="M203.279 34.0032V57.0281H207.521V54.9232L210.445 51.0371L213.809 57.0281H218.651L213.159 47.4425L218.651 40.5933H213.809L207.521 48.5274V34.0032H203.279Z" fill="white"/>
</mask>
<g mask="url(#mask7_12_193)">
<path d="M208.416 26.7934L192.405 49.3435L213.536 64.2413L229.547 41.6912L208.416 26.7934Z" fill="url(#paint7_linear_12_193)"/>
</g>
<path d="M78.4519 5.16528H49.528V67.9091H78.4519V5.16528Z" fill="#F3F2F1"/>
<path d="M51.0717 39.6704L49.528 37.8083V9.7962C49.528 9.7962 49.528 8.85707 49.528 7.67506C49.528 7.14073 49.6255 6.68735 49.8855 6.31494C50.438 5.47295 51.153 5.31104 51.153 5.31104C51.153 5.31104 51.088 39.638 51.088 39.6704" fill="#14A1B5"/>
<mask id="mask8_12_193" style="mask-type:luminance" maskUnits="userSpaceOnUse" x="46" y="1" width="36" height="71">
<path d="M52.4691 1.76489C48.943 1.76489 46.0669 4.63087 46.0669 8.14452V18.9122H49.5443V8.14452C49.5443 6.54152 50.8605 5.22997 52.4691 5.22997H75.4945C77.1032 5.22997 78.4031 6.54152 78.4031 8.14452V64.784C78.4031 66.387 77.0869 67.6823 75.4945 67.6823H52.4691C50.8605 67.6823 49.5443 66.387 49.5443 64.784V49.2073H46.0669V64.784C46.0669 68.2976 48.943 71.1636 52.4691 71.1636H75.4945C79.0206 71.1636 81.8967 68.2976 81.8967 64.784V8.14452C81.8967 4.63087 79.0206 1.76489 75.4945 1.76489H52.4691Z" fill="white"/>
</mask>
<g mask="url(#mask8_12_193)">
<path d="M72.2202 -14.0956L15.1553 20.4778L55.7352 86.9843L112.8 52.4109L72.2202 -14.0956Z" fill="url(#paint8_linear_12_193)"/>
</g>
<mask id="mask9_12_193" style="mask-type:luminance" maskUnits="userSpaceOnUse" x="0" y="0" width="50" height="74">
<path d="M0 0.356201V73.3333H49.528L49.5443 65.1078L49.528 0.356201H0Z" fill="white"/>
</mask>
<g mask="url(#mask9_12_193)">
<path d="M60.6588 5.4242C53.5741 8.04729 49.8368 12.1439 49.8368 12.1439C49.8368 12.1439 36.0736 -2.89846 11.1958 6.16903V60.1854C11.1958 60.1854 27.8189 52.0408 49.8043 63.3266C53.5904 61.416 57.2302 60.072 60.6426 59.1653V5.4242H60.6588Z" fill="white"/>
</g>
<mask id="mask10_12_193" style="mask-type:luminance" maskUnits="userSpaceOnUse" x="9" y="1" width="41" height="65">
<path d="M10.6108 4.53368L9.47339 4.95467V62.9542L11.9758 61.7398C11.9758 61.7398 16.0381 59.7968 22.6029 59.2301C28.6314 58.7119 38.121 59.2625 49.0406 64.8649L49.5605 65.124V61.2217C40.6721 56.8661 32.6775 55.5545 26.2752 55.5545C20.2467 55.5545 15.6156 56.7203 12.967 57.6109V7.39965C22.3754 4.20984 31.1338 4.17745 39.0472 7.3025C43.7108 9.13219 46.7494 11.6096 47.9681 12.7268V39.6702L49.5443 37.7919V9.47222C47.8381 8.04733 44.8157 5.86142 40.5097 4.12888C37.0648 2.75256 32.385 1.52197 26.649 1.52197C21.9854 1.52197 16.6069 2.33157 10.6108 4.51748" fill="white"/>
</mask>
<g mask="url(#mask10_12_193)">
<path d="M38.7273 -16.2049L-18.8652 18.6882L20.2881 82.8566L77.8806 47.9635L38.7273 -16.2049Z" fill="url(#paint9_linear_12_193)"/>
</g>
<mask id="mask11_12_193" style="mask-type:luminance" maskUnits="userSpaceOnUse" x="0" y="0" width="50" height="74">
<path d="M0 0.356201V73.3333H49.528L49.5443 65.1078L49.528 0.356201H0Z" fill="white"/>
</mask>
<g mask="url(#mask11_12_193)">
<path d="M42.9633 52.2351C42.8333 52.2351 42.7196 52.2027 42.6221 52.1218C34.0099 45.8555 17.793 49.0291 17.6306 49.0615C17.3218 49.1263 17.0131 48.932 16.9643 48.6243C16.8993 48.3167 17.0943 48.0252 17.4031 47.9604C17.5818 47.9281 21.6441 47.1185 26.8927 47.0861C33.9774 47.0699 39.5022 48.43 43.2883 51.1988C43.5483 51.3931 43.597 51.7332 43.4183 51.9922C43.3045 52.138 43.142 52.2189 42.9633 52.2189" fill="#92BBC0"/>
<path d="M43.3371 46.5031C43.2396 46.5031 43.1583 46.4708 43.0608 46.4384C30.6301 39.6054 17.8256 43.4752 17.6956 43.5238C17.4031 43.621 17.0781 43.4591 16.9806 43.1514C16.8831 42.8438 17.0456 42.5361 17.3544 42.439C17.4843 42.4066 30.7276 38.3748 43.5971 45.4507C43.8733 45.5964 43.9708 45.9526 43.8245 46.2117C43.7271 46.406 43.5321 46.5031 43.3208 46.5031" fill="#92BBC0"/>
<path d="M43.337 40.9493C43.2395 40.9493 43.1421 40.9169 43.0446 40.8683C32.06 34.2296 18.0043 37.9376 17.8581 37.9699C17.5656 38.0509 17.2406 37.8728 17.1593 37.5651C17.0781 37.2575 17.2568 36.9498 17.5656 36.8689C18.1506 36.707 32.2225 32.999 43.6295 39.8968C43.9058 40.0587 43.987 40.4149 43.8245 40.674C43.727 40.8521 43.532 40.9493 43.337 40.9493Z" fill="#92BBC0"/>
<path d="M42.7683 35.2174C42.6708 35.2174 42.5571 35.185 42.4596 35.1364C32.9375 29.2263 17.5981 32.2219 17.4356 32.2542C17.1268 32.319 16.8343 32.1247 16.7694 31.8171C16.7044 31.5094 16.8993 31.218 17.2243 31.1532C17.3868 31.1208 21.2379 30.3598 26.3727 30.3274C31.1175 30.3274 37.8773 30.9589 43.0771 34.1811C43.337 34.343 43.4183 34.6992 43.2558 34.9583C43.142 35.1364 42.9633 35.2336 42.7683 35.2336" fill="#92BBC0"/>
<path d="M43.142 29.113C43.142 29.113 42.9795 29.0969 42.8983 29.0645C29.8826 22.9439 17.988 26.6519 17.8743 26.6842C17.5818 26.7814 17.2568 26.6195 17.1593 26.328C17.0618 26.0366 17.2243 25.7127 17.5168 25.6156C17.6306 25.5832 29.9476 21.7295 43.3695 28.0444C43.662 28.1739 43.7758 28.5139 43.6458 28.8054C43.5483 29.0159 43.3533 29.1292 43.142 29.1292" fill="#92BBC0"/>
<path d="M42.9633 23.9316C42.8658 23.9316 42.7683 23.8992 42.6708 23.8507C31.67 17.5682 17.9718 20.7418 17.8418 20.7742C17.5331 20.8551 17.2243 20.6608 17.1593 20.3532C17.0781 20.0455 17.2731 19.7379 17.5818 19.6731C18.1668 19.5274 31.865 16.37 43.2558 22.8791C43.532 23.0411 43.6133 23.3811 43.467 23.6564C43.3696 23.8345 43.1746 23.9478 42.9796 23.9478" fill="#92BBC0"/>
<path d="M43.1421 18.0053C43.0446 18.0053 42.9471 17.9729 42.8496 17.9244C32.2225 11.6419 17.9881 14.9936 17.8418 15.026C17.5331 15.0908 17.2243 14.9127 17.1593 14.605C17.0943 14.2974 17.2731 13.9897 17.5818 13.925C18.183 13.7792 32.4175 10.4275 43.4345 16.9528C43.6945 17.1148 43.792 17.4548 43.6295 17.7301C43.532 17.9082 43.337 18.0053 43.1421 18.0053Z" fill="#92BBC0"/>
</g>
<path d="M74.8933 19.0579H53.2004C52.9241 19.0579 52.6967 18.8312 52.6967 18.5559C52.6967 18.2806 52.9241 18.054 53.2004 18.054H74.8933C75.1695 18.054 75.397 18.2806 75.397 18.5559C75.397 18.8312 75.1695 19.0579 74.8933 19.0579Z" fill="#92BBC0"/>
<path d="M74.8933 23.8184H53.2004C52.9241 23.8184 52.6967 23.5917 52.6967 23.3164C52.6967 23.0411 52.9241 22.8145 53.2004 22.8145H74.8933C75.1695 22.8145 75.397 23.0411 75.397 23.3164C75.397 23.5917 75.1695 23.8184 74.8933 23.8184Z" fill="#92BBC0"/>
<path d="M74.8933 28.5625H53.2004C52.9241 28.5625 52.6967 28.3358 52.6967 28.0605C52.6967 27.7853 52.9241 27.5586 53.2004 27.5586H74.8933C75.1695 27.5586 75.397 27.7853 75.397 28.0605C75.397 28.3358 75.1695 28.5625 74.8933 28.5625Z" fill="#92BBC0"/>
<path d="M74.8933 33.323H53.2004C52.9241 33.323 52.6967 33.0963 52.6967 32.821C52.6967 32.5458 52.9241 32.3191 53.2004 32.3191H74.8933C75.1695 32.3191 75.397 32.5458 75.397 32.821C75.397 33.0963 75.1695 33.323 74.8933 33.323Z" fill="#92BBC0"/>
<path d="M74.8933 38.0671H53.2004C52.9241 38.0671 52.6967 37.8404 52.6967 37.5652C52.6967 37.2899 52.9241 37.0632 53.2004 37.0632H74.8933C75.1695 37.0632 75.397 37.2899 75.397 37.5652C75.397 37.8404 75.1695 38.0671 74.8933 38.0671Z" fill="#92BBC0"/>
<path d="M74.8933 42.8115H53.2004C52.9241 42.8115 52.6967 42.5848 52.6967 42.3096C52.6967 42.0343 52.9241 41.8076 53.2004 41.8076H74.8933C75.1695 41.8076 75.397 42.0343 75.397 42.3096C75.397 42.5848 75.1695 42.8115 74.8933 42.8115Z" fill="#92BBC0"/>
<path d="M74.8933 47.572H53.2004C52.9241 47.572 52.6967 47.3453 52.6967 47.0701C52.6967 46.7948 52.9241 46.5681 53.2004 46.5681H74.8933C75.1695 46.5681 75.397 46.7948 75.397 47.0701C75.397 47.3453 75.1695 47.572 74.8933 47.572Z" fill="#92BBC0"/>
<path d="M74.8933 52.3162H53.2004C52.9241 52.3162 52.6967 52.0895 52.6967 51.8142C52.6967 51.5389 52.9241 51.3123 53.2004 51.3123H74.8933C75.1695 51.3123 75.397 51.5389 75.397 51.8142C75.397 52.0895 75.1695 52.3162 74.8933 52.3162Z" fill="#92BBC0"/>
<path d="M110.219 24.0449C110.219 26.0689 109.342 27.6881 107.587 28.8701C106.027 29.9226 104.191 30.4569 102.062 30.4569C100.567 30.4569 99.0236 30.1331 97.4149 29.4854C95.4325 28.692 94.4413 27.6395 94.4413 26.3604C94.4413 25.9232 94.5712 25.567 94.8637 25.2593C95.14 24.9517 95.4975 24.8059 95.9199 24.8059C96.4724 24.8059 96.9762 25.0974 97.4474 25.6803C98.2111 26.6518 98.6823 27.2024 98.8611 27.3319C99.5923 27.9148 100.535 28.2063 101.721 28.2063C102.452 28.2063 103.086 28.0443 103.655 27.7043C104.337 27.2995 104.662 26.7652 104.662 26.1013C104.662 25.2917 103.833 24.6602 102.176 24.2392C99.6248 23.5592 98.0811 23.0896 97.5611 22.8305C95.9037 21.9724 95.075 20.6284 95.075 18.7825C95.075 16.9367 95.8712 15.3984 97.4799 14.3136C98.8773 13.3582 100.567 12.8887 102.566 12.8887C103.687 12.8887 104.662 12.9858 105.491 13.1963C106.108 13.342 106.921 13.6335 107.912 14.0545C108.497 14.2974 108.854 14.6212 109.001 14.9936C109.114 15.3013 109.163 15.9975 109.163 17.0824C109.163 18.0053 108.773 18.4587 108.009 18.4587C107.554 18.4587 107.164 18.1511 106.856 17.5196C106.385 16.5481 106.027 15.949 105.816 15.7223C105.231 15.0908 104.402 14.7831 103.33 14.7831C102.615 14.7831 102.03 14.9127 101.558 15.1555C100.941 15.4794 100.632 15.9651 100.632 16.6128C100.632 17.5196 101.461 18.232 103.135 18.734C104.483 19.155 106.027 19.6407 107.749 20.2074C109.407 21.0494 110.252 22.3448 110.252 24.0773L110.219 24.0449Z" fill="white"/>
<path d="M132.351 15.8679V27.2832C132.351 27.6071 132.546 27.9309 132.968 28.2385C133.375 28.5462 133.586 28.87 133.586 29.1777C133.586 29.793 133.098 30.1006 132.107 30.1006H127.07C126.079 30.1006 125.591 29.793 125.591 29.1777C125.591 28.87 125.786 28.5624 126.209 28.2385C126.615 27.9309 126.826 27.6071 126.826 27.2832V18.5396H126.777L123.771 26.9918C123.609 27.4289 123.316 27.7042 122.861 27.8175C122.65 27.8823 122.195 27.9147 121.529 27.9147C120.928 27.9147 120.505 27.8661 120.245 27.7528C119.904 27.6071 119.628 27.267 119.433 26.7651L116.313 18.8796V26.9756C116.313 27.3804 116.605 27.769 117.207 28.1576C117.808 28.5462 118.1 28.8862 118.1 29.1777C118.1 29.793 117.629 30.1006 116.687 30.1006H113.957C112.949 30.1006 112.462 29.7768 112.462 29.1291C112.462 28.8376 112.722 28.5138 113.226 28.1738C113.729 27.8337 113.989 27.4289 113.989 26.9594V16.0136C113.989 15.706 113.729 15.4145 113.193 15.1393C112.657 14.864 112.397 14.4754 112.397 13.9896C112.397 13.5039 112.787 13.261 113.55 13.261H118.637C119.352 13.261 119.839 13.4067 120.115 13.682C120.326 13.8925 120.57 14.3944 120.863 15.1716L123.349 22.118L126.322 14.2325C126.566 13.5848 127.086 13.261 127.899 13.261H132.221C132.757 13.261 133.131 13.3096 133.358 13.4067C133.732 13.5524 133.911 13.8601 133.911 14.2973C133.911 14.6535 133.651 14.9449 133.131 15.1878C132.611 15.4307 132.351 15.6574 132.351 15.8841V15.8679Z" fill="white"/>
<path d="M145.578 24.8869H139.809C139.289 26.4251 139.029 27.3319 139.029 27.6071C139.029 27.85 139.224 28.1091 139.614 28.3682C140.004 28.6272 140.199 28.8863 140.199 29.1454C140.199 29.7769 139.744 30.0845 138.834 30.0845H136.251C135.503 30.0845 135.146 29.7769 135.146 29.1616C135.146 28.8863 135.341 28.5786 135.763 28.271C136.17 27.9472 136.381 27.7529 136.397 27.6881C136.625 26.8947 137.323 24.9193 138.493 21.7942C139.761 18.3939 140.606 16.2242 141.061 15.3013C141.451 14.4917 141.808 13.9573 142.166 13.6982C142.588 13.3906 143.206 13.2449 144.067 13.2449C145.025 13.2449 145.659 13.3258 145.968 13.5039C146.277 13.6659 146.634 14.1516 147.057 14.9612C149.169 19.0092 150.875 23.2677 152.191 27.7043C152.24 27.8662 152.435 28.0929 152.776 28.3843C153.118 28.6758 153.28 28.9511 153.28 29.2263C153.28 29.8092 152.825 30.1007 151.899 30.1007H147.138C146.082 30.1007 145.545 29.8092 145.545 29.2263C145.545 28.9996 145.692 28.7568 146 28.4977C146.309 28.2386 146.455 28.0929 146.455 28.0443C146.374 27.7367 146.098 26.6842 145.627 24.8869H145.578ZM140.541 22.5876H144.733L142.718 17.2767L140.541 22.5876Z" fill="white"/>
<path d="M155.896 27.2834V16.0462C155.896 15.7223 155.685 15.3985 155.279 15.0908C154.873 14.7832 154.661 14.4593 154.661 14.1517C154.661 13.5364 155.149 13.2288 156.14 13.2288H165.825C167.433 13.2288 168.701 13.504 169.659 14.0545C170.862 14.7508 171.463 15.8195 171.463 17.2929C171.463 19.1874 170.358 20.6771 168.165 21.7295C169.335 22.9763 170.326 24.7412 171.122 27.0405C171.203 27.251 171.479 27.672 171.983 28.2873C172.438 28.8378 172.682 29.1616 172.682 29.275C172.682 29.7931 172.146 30.0522 171.089 30.0522H165.873C164.833 30.0522 164.313 29.7607 164.33 29.194C164.33 28.9511 164.476 28.6921 164.768 28.433C165.061 28.1739 165.207 27.9958 165.207 27.8825C165.207 27.3481 164.915 26.5062 164.33 25.3727C163.793 24.3364 163.306 23.543 162.851 23.0087L161.47 23.1868V27.2348C161.47 27.5586 161.665 27.8825 162.087 28.1901C162.494 28.4978 162.705 28.8216 162.705 29.1293C162.705 29.7445 162.217 30.0522 161.226 30.0522H156.189C155.198 30.0522 154.71 29.7445 154.71 29.1293C154.71 28.8216 154.905 28.514 155.328 28.1901C155.734 27.8825 155.945 27.5586 155.945 27.2348L155.896 27.2834ZM161.437 16.9691V21.0495H161.697C161.811 21.0495 161.876 21.0657 161.925 21.0657C162.949 21.0657 163.826 20.7742 164.541 20.1913C165.305 19.576 165.695 18.7664 165.695 17.7787C165.695 17.0339 165.467 16.4186 164.996 15.9004C164.525 15.3823 163.94 15.1232 163.225 15.1232C162.039 15.1232 161.454 15.7385 161.454 16.9691H161.437Z" fill="white"/>
<path d="M175.737 13.2449H187.696C188.46 13.2449 188.931 13.3744 189.078 13.6173C189.191 13.7954 189.321 14.2002 189.468 14.8317C189.614 15.4632 189.695 15.9004 189.695 16.1432C189.695 16.9852 189.305 17.4062 188.509 17.4062C188.168 17.4062 187.843 17.2119 187.518 16.8233L186.77 15.8518C186.396 15.4794 185.909 15.2851 185.291 15.2851C184.739 15.2851 184.463 15.6089 184.463 16.2728V27.2671C184.463 27.5909 184.658 27.9148 185.08 28.2224C185.486 28.5301 185.698 28.8539 185.698 29.1616C185.698 29.7769 185.21 30.0845 184.219 30.0845H179.182C178.19 30.0845 177.703 29.7769 177.703 29.1616C177.703 28.8539 177.898 28.5463 178.32 28.2224C178.727 27.9148 178.938 27.5909 178.938 27.2671V16.2728C178.938 15.6089 178.662 15.2851 178.109 15.2851C177.492 15.2851 177.004 15.4794 176.63 15.8518C176.484 16.0623 176.241 16.3861 175.899 16.7909C175.574 17.1957 175.233 17.4062 174.892 17.4062C174.112 17.4062 173.722 16.9852 173.722 16.1432C173.722 15.9004 173.803 15.4632 173.949 14.8317C174.096 14.2002 174.226 13.7954 174.339 13.6173C174.486 13.3744 174.957 13.2449 175.721 13.2449H175.737Z" fill="white"/>
</g>
<defs>
<linearGradient id="paint0_linear_12_193" x1="95.6001" y1="39.8606" x2="163.688" y2="88.2223" gradientUnits="userSpaceOnUse">
<stop stop-color="#50B848"/>
<stop offset="0.2" stop-color="#3CB76A"/>
<stop offset="0.58" stop-color="#1CB5A4"/>
<stop offset="0.85" stop-color="#07B4C9"/>
<stop offset="1" stop-color="#00B4D7"/>
</linearGradient>
<linearGradient id="paint1_linear_12_193" x1="100.827" y1="32.8743" x2="168.915" y2="81.236" gradientUnits="userSpaceOnUse">
<stop stop-color="#50B848"/>
<stop offset="0.2" stop-color="#3CB76A"/>
<stop offset="0.58" stop-color="#1CB5A4"/>
<stop offset="0.85" stop-color="#07B4C9"/>
<stop offset="1" stop-color="#00B4D7"/>
</linearGradient>
<linearGradient id="paint2_linear_12_193" x1="102.061" y1="31.1274" x2="170.148" y2="79.489" gradientUnits="userSpaceOnUse">
<stop stop-color="#50B848"/>
<stop offset="0.2" stop-color="#3CB76A"/>
<stop offset="0.58" stop-color="#1CB5A4"/>
<stop offset="0.85" stop-color="#07B4C9"/>
<stop offset="1" stop-color="#00B4D7"/>
</linearGradient>
<linearGradient id="paint3_linear_12_193" x1="109.116" y1="20.8748" x2="177.204" y2="69.2365" gradientUnits="userSpaceOnUse">
<stop stop-color="#50B848"/>
<stop offset="0.2" stop-color="#3CB76A"/>
<stop offset="0.58" stop-color="#1CB5A4"/>
<stop offset="0.85" stop-color="#07B4C9"/>
<stop offset="1" stop-color="#00B4D7"/>
</linearGradient>
<linearGradient id="paint4_linear_12_193" x1="113.641" y1="14.9599" x2="181.729" y2="63.3216" gradientUnits="userSpaceOnUse">
<stop stop-color="#50B848"/>
<stop offset="0.2" stop-color="#3CB76A"/>
<stop offset="0.58" stop-color="#1CB5A4"/>
<stop offset="0.85" stop-color="#07B4C9"/>
<stop offset="1" stop-color="#00B4D7"/>
</linearGradient>
<linearGradient id="paint5_linear_12_193" x1="118.474" y1="7.90217" x2="186.561" y2="56.2638" gradientUnits="userSpaceOnUse">
<stop stop-color="#50B848"/>
<stop offset="0.2" stop-color="#3CB76A"/>
<stop offset="0.58" stop-color="#1CB5A4"/>
<stop offset="0.85" stop-color="#07B4C9"/>
<stop offset="1" stop-color="#00B4D7"/>
</linearGradient>
<linearGradient id="paint6_linear_12_193" x1="124.483" y1="-0.516918" x2="192.57" y2="47.8448" gradientUnits="userSpaceOnUse">
<stop stop-color="#50B848"/>
<stop offset="0.2" stop-color="#3CB76A"/>
<stop offset="0.58" stop-color="#1CB5A4"/>
<stop offset="0.85" stop-color="#07B4C9"/>
<stop offset="1" stop-color="#00B4D7"/>
</linearGradient>
<linearGradient id="paint7_linear_12_193" x1="132.408" y1="-11.2965" x2="200.496" y2="37.0652" gradientUnits="userSpaceOnUse">
<stop stop-color="#50B848"/>
<stop offset="0.2" stop-color="#3CB76A"/>
<stop offset="0.58" stop-color="#1CB5A4"/>
<stop offset="0.85" stop-color="#07B4C9"/>
<stop offset="1" stop-color="#00B4D7"/>
</linearGradient>
<linearGradient id="paint8_linear_12_193" x1="37.0938" y1="-7.59451" x2="90.1324" y2="79.9479" gradientUnits="userSpaceOnUse">
<stop stop-color="#50B848"/>
<stop offset="0.2" stop-color="#3CB76A"/>
<stop offset="0.58" stop-color="#1CB5A4"/>
<stop offset="0.85" stop-color="#07B4C9"/>
<stop offset="1" stop-color="#00B4D7"/>
</linearGradient>
<linearGradient id="paint9_linear_12_193" x1="12.8989" y1="6.00101" x2="56.046" y2="77.2171" gradientUnits="userSpaceOnUse">
<stop stop-color="#4FB848"/>
<stop offset="0.2" stop-color="#3CB769"/>
<stop offset="0.57" stop-color="#1BB5A3"/>
<stop offset="0.85" stop-color="#07B4C8"/>
<stop offset="1" stop-color="#00B4D6"/>
</linearGradient>
<clipPath id="clip0_12_193">
<rect width="220" height="73.3333" fill="white"/>
</clipPath>
</defs>
</svg>
