<svg width="50" height="50" viewBox="0 0 50 50" fill="none" xmlns="http://www.w3.org/2000/svg">
<path d="M3.125 33.5938H0.78125C0.57405 33.5938 0.375336 33.5114 0.228823 33.3649C0.08231 33.2184 0 33.0197 0 32.8125V17.1875C0 16.9803 0.08231 16.7816 0.228823 16.6351C0.375336 16.4886 0.57405 16.4062 0.78125 16.4062H45.3125C45.5197 16.4062 45.7184 16.4886 45.8649 16.6351C46.0114 16.7816 46.0938 16.9803 46.0938 17.1875C46.0938 17.3947 46.0114 17.5934 45.8649 17.7399C45.7184 17.8864 45.5197 17.9688 45.3125 17.9688H1.5625V32.0312H3.125C3.3322 32.0312 3.53091 32.1136 3.67743 32.2601C3.82394 32.4066 3.90625 32.6053 3.90625 32.8125C3.90625 33.0197 3.82394 33.2184 3.67743 33.3649C3.53091 33.5114 3.3322 33.5938 3.125 33.5938Z" fill="white"/>
<path d="M49.2188 33.5938H5.46875C5.26155 33.5938 5.06284 33.5114 4.91632 33.3649C4.76981 33.2184 4.6875 33.0197 4.6875 32.8125C4.6875 32.6053 4.76981 32.4066 4.91632 32.2601C5.06284 32.1136 5.26155 32.0312 5.46875 32.0312H48.4375V17.9688H47.6562C47.4491 17.9688 47.2503 17.8864 47.1038 17.7399C46.9573 17.5934 46.875 17.3947 46.875 17.1875C46.875 16.9803 46.9573 16.7816 47.1038 16.6351C47.2503 16.4886 47.4491 16.4062 47.6562 16.4062H49.2188C49.4259 16.4062 49.6247 16.4886 49.7712 16.6351C49.9177 16.7816 50 16.9803 50 17.1875V32.8125C50 33.0197 49.9177 33.2184 49.7712 33.3649C49.6247 33.5114 49.4259 33.5938 49.2188 33.5938Z" fill="white"/>
<path d="M8.59375 29.6875C8.38655 29.6875 8.18784 29.6052 8.04132 29.4587C7.89481 29.3122 7.8125 29.1135 7.8125 28.9062V21.0938C7.8125 20.8865 7.89481 20.6878 8.04132 20.5413C8.18784 20.3948 8.38655 20.3125 8.59375 20.3125C8.80095 20.3125 8.99966 20.3948 9.14618 20.5413C9.29269 20.6878 9.375 20.8865 9.375 21.0938V28.9062C9.375 29.1135 9.29269 29.3122 9.14618 29.4587C8.99966 29.6052 8.80095 29.6875 8.59375 29.6875Z" fill="white"/>
<path d="M8.59375 29.6875C8.38655 29.6875 8.18784 29.6052 8.04132 29.4587C7.89481 29.3122 7.8125 29.1135 7.8125 28.9062V21.0938C7.8125 20.8865 7.89481 20.6878 8.04132 20.5413C8.18784 20.3948 8.38655 20.3125 8.59375 20.3125C8.80095 20.3125 8.99966 20.3948 9.14618 20.5413C9.29269 20.6878 9.375 20.8865 9.375 21.0938V28.9062C9.375 29.1135 9.29269 29.3122 9.14618 29.4587C8.99966 29.6052 8.80095 29.6875 8.59375 29.6875Z" fill="white"/>
<path d="M11.7187 28.125C11.5497 28.1253 11.3851 28.0705 11.25 27.9688L5 23.2813C4.83424 23.1569 4.72465 22.9719 4.69535 22.7667C4.66605 22.5616 4.71943 22.3533 4.84375 22.1875C4.96807 22.0217 5.15315 21.9122 5.35826 21.8829C5.56338 21.8536 5.77174 21.9069 5.9375 22.0313L12.1875 26.7188C12.3187 26.8171 12.4156 26.9543 12.4645 27.1108C12.5134 27.2673 12.5118 27.4352 12.4599 27.5908C12.4081 27.7464 12.3086 27.8817 12.1756 27.9775C12.0425 28.0734 11.8827 28.125 11.7187 28.125Z" fill="white"/>
<path d="M5.46875 28.125C5.30478 28.125 5.14497 28.0734 5.01195 27.9775C4.87893 27.8817 4.77944 27.7464 4.72759 27.5908C4.67574 27.4352 4.67415 27.2673 4.72304 27.1108C4.77193 26.9543 4.86882 26.8171 5 26.7188L11.25 22.0313C11.4158 21.9069 11.6241 21.8536 11.8292 21.8829C12.0344 21.9122 12.2194 22.0217 12.3438 22.1875C12.4681 22.3533 12.5215 22.5616 12.4921 22.7667C12.4628 22.9719 12.3533 23.1569 12.1875 23.2813L5.9375 27.9688C5.80243 28.0705 5.63784 28.1253 5.46875 28.125Z" fill="white"/>
<path d="M19.5312 29.6875C19.324 29.6875 19.1253 29.6052 18.9788 29.4587C18.8323 29.3122 18.75 29.1135 18.75 28.9062V21.0938C18.75 20.8865 18.8323 20.6878 18.9788 20.5413C19.1253 20.3948 19.324 20.3125 19.5312 20.3125C19.7385 20.3125 19.9372 20.3948 20.0837 20.5413C20.2302 20.6878 20.3125 20.8865 20.3125 21.0938V28.9062C20.3125 29.1135 20.2302 29.3122 20.0837 29.4587C19.9372 29.6052 19.7385 29.6875 19.5312 29.6875Z" fill="white"/>
<path d="M19.5312 29.6875C19.324 29.6875 19.1253 29.6052 18.9788 29.4587C18.8323 29.3122 18.75 29.1135 18.75 28.9062V21.0938C18.75 20.8865 18.8323 20.6878 18.9788 20.5413C19.1253 20.3948 19.324 20.3125 19.5312 20.3125C19.7385 20.3125 19.9372 20.3948 20.0837 20.5413C20.2302 20.6878 20.3125 20.8865 20.3125 21.0938V28.9062C20.3125 29.1135 20.2302 29.3122 20.0837 29.4587C19.9372 29.6052 19.7385 29.6875 19.5312 29.6875Z" fill="white"/>
<path d="M22.6563 28.125C22.4872 28.1253 22.3226 28.0705 22.1875 27.9688L15.9375 23.2812C15.8554 23.2197 15.7863 23.1426 15.734 23.0543C15.6817 22.966 15.6474 22.8683 15.6329 22.7667C15.6183 22.6652 15.624 22.5617 15.6494 22.4624C15.6749 22.363 15.7197 22.2696 15.7813 22.1875C15.8428 22.1054 15.9199 22.0363 16.0082 21.984C16.0965 21.9317 16.1942 21.8974 16.2958 21.8829C16.3973 21.8683 16.5008 21.874 16.6001 21.8994C16.6995 21.9249 16.7929 21.9697 16.875 22.0313L23.125 26.7188C23.2562 26.8171 23.3531 26.9543 23.402 27.1108C23.4509 27.2673 23.4493 27.4352 23.3974 27.5908C23.3456 27.7464 23.2461 27.8817 23.1131 27.9775C22.98 28.0734 22.8202 28.125 22.6563 28.125Z" fill="white"/>
<path d="M16.4062 28.125C16.2423 28.125 16.0825 28.0734 15.9494 27.9775C15.8164 27.8817 15.7169 27.7464 15.6651 27.5908C15.6132 27.4352 15.6116 27.2673 15.6605 27.1108C15.7094 26.9543 15.8063 26.8171 15.9375 26.7188L22.1875 22.0313C22.2696 21.9697 22.363 21.9249 22.4624 21.8994C22.5617 21.874 22.6652 21.8683 22.7667 21.8829C22.8683 21.8974 22.966 21.9317 23.0543 21.984C23.1426 22.0363 23.2197 22.1054 23.2812 22.1875C23.3428 22.2696 23.3876 22.363 23.4131 22.4624C23.4385 22.5617 23.4442 22.6652 23.4296 22.7667C23.4151 22.8683 23.3808 22.966 23.3285 23.0543C23.2762 23.1426 23.2071 23.2197 23.125 23.2812L16.875 27.9688C16.7399 28.0705 16.5753 28.1253 16.4062 28.125Z" fill="white"/>
<path d="M30.4688 29.6875C30.2615 29.6875 30.0628 29.6052 29.9163 29.4587C29.7698 29.3122 29.6875 29.1135 29.6875 28.9062V21.0938C29.6875 20.8865 29.7698 20.6878 29.9163 20.5413C30.0628 20.3948 30.2615 20.3125 30.4688 20.3125C30.676 20.3125 30.8747 20.3948 31.0212 20.5413C31.1677 20.6878 31.25 20.8865 31.25 21.0938V28.9062C31.25 29.1135 31.1677 29.3122 31.0212 29.4587C30.8747 29.6052 30.676 29.6875 30.4688 29.6875Z" fill="white"/>
<path d="M30.4688 29.6875C30.2615 29.6875 30.0628 29.6052 29.9163 29.4587C29.7698 29.3122 29.6875 29.1135 29.6875 28.9062V21.0938C29.6875 20.8865 29.7698 20.6878 29.9163 20.5413C30.0628 20.3948 30.2615 20.3125 30.4688 20.3125C30.676 20.3125 30.8747 20.3948 31.0212 20.5413C31.1677 20.6878 31.25 20.8865 31.25 21.0938V28.9062C31.25 29.1135 31.1677 29.3122 31.0212 29.4587C30.8747 29.6052 30.676 29.6875 30.4688 29.6875Z" fill="white"/>
<path d="M33.5937 28.125C33.4247 28.1253 33.2601 28.0705 33.125 27.9688L26.875 23.2812C26.7929 23.2197 26.7238 23.1426 26.6715 23.0543C26.6192 22.966 26.5849 22.8683 26.5704 22.7667C26.5558 22.6652 26.5615 22.5617 26.5869 22.4624C26.6124 22.363 26.6572 22.2696 26.7187 22.1875C26.7803 22.1054 26.8574 22.0363 26.9457 21.984C27.034 21.9317 27.1317 21.8974 27.2333 21.8829C27.3348 21.8683 27.4383 21.874 27.5376 21.8994C27.637 21.9249 27.7304 21.9697 27.8125 22.0313L34.0625 26.7188C34.1937 26.8171 34.2906 26.9543 34.3395 27.1108C34.3884 27.2673 34.3868 27.4352 34.3349 27.5908C34.2831 27.7464 34.1836 27.8817 34.0506 27.9775C33.9175 28.0734 33.7577 28.125 33.5937 28.125Z" fill="white"/>
<path d="M27.3438 28.125C27.1798 28.125 27.02 28.0734 26.8869 27.9775C26.7539 27.8817 26.6544 27.7464 26.6026 27.5908C26.5507 27.4352 26.5491 27.2673 26.598 27.1108C26.6469 26.9543 26.7438 26.8171 26.875 26.7188L33.125 22.0313C33.2908 21.9069 33.4991 21.8536 33.7042 21.8829C33.9094 21.9122 34.0944 22.0217 34.2188 22.1875C34.3431 22.3533 34.3965 22.5616 34.3671 22.7667C34.3378 22.9719 34.2283 23.1569 34.0625 23.2813L27.8125 27.9688C27.6774 28.0705 27.5128 28.1253 27.3438 28.125Z" fill="white"/>
<path d="M44.5312 29.6875H38.2812C38.074 29.6875 37.8753 29.6052 37.7288 29.4587C37.5823 29.3122 37.5 29.1135 37.5 28.9062C37.5 28.699 37.5823 28.5003 37.7288 28.3538C37.8753 28.2073 38.074 28.125 38.2812 28.125H44.5312C44.7385 28.125 44.9372 28.2073 45.0837 28.3538C45.2302 28.5003 45.3125 28.699 45.3125 28.9062C45.3125 29.1135 45.2302 29.3122 45.0837 29.4587C44.9372 29.6052 44.7385 29.6875 44.5312 29.6875Z" fill="white"/>
</svg>
