<svg width="68" height="73" viewBox="0 0 68 73" fill="none" xmlns="http://www.w3.org/2000/svg">
<path fill-rule="evenodd" clip-rule="evenodd" d="M13.0281 22.7856C14.1116 22.5238 15.2191 22.392 16.33 22.3926C25.1275 22.3926 32.2572 30.5406 32.2572 40.5876C32.2572 50.6376 25.1275 58.7856 16.33 58.7856C7.53252 58.7856 0.400024 50.6406 0.400024 40.5876C0.400024 40.2936 0.405649 39.9966 0.419712 39.7026H0.400024C0.400024 24.5376 11.2 12.1986 24.475 12.1986V18.3066C20.1691 18.3066 16.1978 19.9806 13.0281 22.7856ZM48.6738 22.7856C49.7369 22.5276 50.8394 22.3926 51.97 22.3926C60.7675 22.3926 67.9 30.5406 67.9 40.5876C67.9 50.6376 60.7675 58.7856 51.97 58.7856C43.1725 58.7856 36.0428 50.6406 36.0428 40.5876C36.0428 40.2936 36.0485 39.9966 36.0625 39.7026H36.0428C36.0428 24.5376 46.8428 12.1986 60.1178 12.1986V18.3066C55.8091 18.3066 51.8435 19.9806 48.6738 22.7856Z" fill="#FBADA2"/>
</svg>
