<svg width="50" height="50" viewBox="0 0 50 50" fill="none" xmlns="http://www.w3.org/2000/svg">
<path d="M38.8298 0H11.1702C8.97042 0 7.18085 1.78968 7.18085 3.98936V46.0106C7.18085 48.2103 8.97042 50 11.1702 50H38.8298C41.0296 50 42.8191 48.2103 42.8191 46.0106V3.98936C42.8191 1.78968 41.0296 0 38.8298 0ZM41.2234 46.0106C41.2234 47.3304 40.1496 48.4043 38.8298 48.4043H11.1702C9.85042 48.4043 8.77659 47.3304 8.77659 46.0106V3.98936C8.77659 2.66957 9.85042 1.59574 11.1702 1.59574H38.8298C40.1496 1.59574 41.2234 2.66957 41.2234 3.98936V46.0106Z" fill="white"/>
<path d="M25 42.0212C23.6802 42.0212 22.6064 43.0951 22.6064 44.4149C22.6064 45.7346 23.6802 46.8085 25 46.8085C26.3198 46.8085 27.3936 45.7346 27.3936 44.4149C27.3936 43.0951 26.3198 42.0212 25 42.0212ZM25 45.2127C24.56 45.2127 24.2021 44.8548 24.2021 44.4149C24.2021 43.975 24.56 43.617 25 43.617C25.44 43.617 25.7979 43.975 25.7979 44.4149C25.7979 44.8548 25.44 45.2127 25 45.2127Z" fill="white"/>
<path d="M18.617 12.5H31.383C31.8237 12.5 32.1809 12.1428 32.1809 11.7022C32.1809 11.2615 31.8237 10.9043 31.383 10.9043H18.617C18.1763 10.9043 17.8192 11.2615 17.8192 11.7022C17.8192 12.1428 18.1763 12.5 18.617 12.5Z" fill="white"/>
<path d="M18.617 17.8191H31.383C31.8237 17.8191 32.1809 17.4619 32.1809 17.0213C32.1809 16.5806 31.8237 16.2234 31.383 16.2234H18.617C18.1763 16.2234 17.8192 16.5806 17.8192 17.0213C17.8192 17.4619 18.1763 17.8191 18.617 17.8191Z" fill="white"/>
<path d="M18.617 23.1383H31.383C31.8237 23.1383 32.1809 22.7811 32.1809 22.3405C32.1809 21.8998 31.8237 21.5426 31.383 21.5426H18.617C18.1763 21.5426 17.8192 21.8998 17.8192 22.3405C17.8192 22.7811 18.1763 23.1383 18.617 23.1383Z" fill="white"/>
<path d="M18.617 28.4574H31.383C31.8237 28.4574 32.1809 28.1002 32.1809 27.6596C32.1809 27.2189 31.8237 26.8617 31.383 26.8617H18.617C18.1763 26.8617 17.8192 27.2189 17.8192 27.6596C17.8192 28.1002 18.1763 28.4574 18.617 28.4574Z" fill="white"/>
<path d="M18.617 33.7767H31.383C31.8237 33.7767 32.1809 33.4194 32.1809 32.9788C32.1809 32.5381 31.8237 32.1809 31.383 32.1809H18.617C18.1763 32.1809 17.8192 32.5381 17.8192 32.9788C17.8192 33.4194 18.1763 33.7767 18.617 33.7767Z" fill="white"/>
<path d="M37.7659 4.25537H12.234C11.7933 4.25537 11.4362 4.61261 11.4362 5.05324V39.6277C11.4362 40.0683 11.7933 40.4256 12.234 40.4256H37.7659C38.2067 40.4256 38.5638 40.0683 38.5638 39.6277V5.05324C38.5638 4.61261 38.2067 4.25537 37.7659 4.25537ZM36.9681 38.8298H13.0319V5.85112H36.9681V38.8298Z" fill="white"/>
</svg>
