<svg width="23" height="18" viewBox="0 0 23 18" fill="none" xmlns="http://www.w3.org/2000/svg">
<path fill-rule="evenodd" clip-rule="evenodd" d="M11.3715 4.98873L11.4191 5.73021L10.6264 5.63942C7.74077 5.29138 5.21984 4.11107 3.07942 2.12875L2.033 1.14516L1.76347 1.87151C1.19269 3.49065 1.55735 5.20059 2.74647 6.35063C3.38067 6.98618 3.23797 7.07698 2.14398 6.69867C1.76347 6.57761 1.43051 6.48682 1.3988 6.53222C1.28782 6.63814 1.66834 8.01517 1.96958 8.55993C2.38181 9.31654 3.22212 10.058 4.1417 10.4968L4.9186 10.8449L3.99901 10.86C3.11113 10.86 3.07942 10.8752 3.17455 11.1929C3.49165 12.1765 4.74419 13.2206 6.13943 13.6746L7.12243 13.9924L6.26626 14.4766C4.99787 15.1727 3.50751 15.5661 2.01714 15.5964C1.30367 15.6115 0.717041 15.6721 0.717041 15.7175C0.717041 15.8688 2.65134 16.7162 3.77704 17.0491C7.15414 18.0327 11.1654 17.609 14.1779 15.9293C16.3183 14.7339 18.4587 12.3581 19.4576 10.058C19.9966 8.83231 20.5357 6.59275 20.5357 5.51836C20.5357 4.82228 20.5833 4.73149 21.4711 3.89922C21.9943 3.41499 22.4859 2.88536 22.581 2.73404C22.7395 2.44653 22.7237 2.44653 21.9151 2.70378C20.5674 3.15774 20.3771 3.09721 21.0431 2.41626C21.5346 1.93203 22.1212 1.05437 22.1212 0.797121C22.1212 0.751724 21.8834 0.827385 21.6138 0.963575C21.3284 1.1149 20.6942 1.34188 20.2186 1.47807L19.3624 1.73532L18.5855 1.23595C18.1575 0.963575 17.555 0.660931 17.2379 0.570138C16.4293 0.358288 15.1926 0.388552 14.4633 0.630667C12.4814 1.31161 11.2289 3.06695 11.3715 4.98873Z" fill="white"/>
</svg>
