<svg width="25" height="18" viewBox="0 0 25 18" fill="none" xmlns="http://www.w3.org/2000/svg">
<path fill-rule="evenodd" clip-rule="evenodd" d="M21.6177 1.04885C22.6301 1.32668 23.4275 2.14528 23.698 3.18482C24.1898 5.06889 24.1898 9 24.1898 9C24.1898 9 24.1898 12.931 23.698 14.8152C23.4275 15.8547 22.6301 16.6733 21.6177 16.9513C19.7829 17.456 12.4248 17.456 12.4248 17.456C12.4248 17.456 5.06679 17.456 3.23186 16.9513C2.2194 16.6733 1.42206 15.8547 1.15147 14.8152C0.659882 12.931 0.659882 9 0.659882 9C0.659882 9 0.659882 5.06889 1.15147 3.18482C1.42206 2.14528 2.2194 1.32668 3.23186 1.04885C5.06679 0.543945 12.4248 0.543945 12.4248 0.543945C12.4248 0.543945 19.7829 0.543945 21.6177 1.04885ZM10.2184 5.69068V13.0438L16.1008 9.36737L10.2184 5.69068Z" fill="white"/>
</svg>
